<svg width="32" height="34" viewBox="0 0 32 34" fill="none" xmlns="http://www.w3.org/2000/svg">
<mask id="path-1-inside-1_496_14927" fill="white">
<path d="M4.16393 29.386L2.67756 27.8837L2.49772 27.8177L2.4192 27.7274L2.36179 27.5817L2.32229 26.9862L1.57592 25.7155L1.47164 25.6103L1.08349 25.6061L0.791026 25.3997L0.688957 25.1328L0.681598 24.9277L0.785874 24.4173L0.74539 24.159L0.240447 23.6482L0.087345 23.1761L0.100104 22.535L0 21.7044L0.203155 21.1431L0.119242 20.0564L0.333928 18.7847L0.486048 18.3953L0.655098 18.3156L1.13673 17.6553L1.12299 17.5287L0.97406 17.4448L0.855063 16.8037L0.904134 16.642L1.24125 16.1422L1.4763 16.0156L2.18783 15.1225L2.7259 14.6897L3.21661 13.0831L3.34199 12.5068L3.25906 12.1039L3.31549 11.2405L3.38149 11.1554L3.46663 11.0756L3.54024 10.9181L3.46663 10.5864L3.54024 10.0878L3.7029 9.55935L3.71664 9.3876L3.5552 8.88683L3.38075 8.57081L3.47006 7.71207L3.53925 7.59405L4.26869 7.359L4.53859 7.12714L4.49393 6.78364L4.61514 6.21933L4.72456 6.05224L5.08843 5.97152L5.90178 5.9801L6.64496 5.57183L6.76936 5.46854L6.9151 5.23251L6.90234 5.08897L7.49978 4.22336L7.94535 3.46276L8.1144 2.93009L8.02312 2.85354L7.8369 2.84176L8.24738 2.5228L8.40588 2.51127L8.72484 2.58659L9.63266 1.95505L10.2036 1.2948L10.897 0.872539L11.1786 0.491011L11.2819 0.406855L11.6114 0.352631L11.636 0.462305L11.5764 0.616388L11.3636 0.785438L11.385 1.57327L11.6424 2.3167L12.0401 2.99388L12.1112 3.56286L11.5786 4.56244L11.6392 5.13216L11.8666 5.83927L12.0698 6.32606L12.1804 6.38445L12.4388 6.38985L12.5386 6.46002L12.8257 6.98214L12.612 7.5094L12.7057 7.72851L12.9322 7.83818L13.099 7.44046L13.3998 7.74446L13.5022 8.0433L13.6435 8.91529L13.6891 9.02153L13.8179 9.13955L14.7557 9.23524L14.8538 9.30541L15.1357 9.89671L15.7842 10.2284L16.3264 10.3985L16.4307 11.0759L16.8358 11.4842L17.0954 11.6314L17.5228 11.7069L17.8153 11.691L18.1502 11.7261L18.8838 11.9025L18.989 12.0068L19.4825 12.0632L19.6397 11.9611L19.7896 11.7707L20.1822 11.5867L20.8552 11.6441L21.9301 12.1886L21.9684 12.3279L22.2299 12.6447L22.716 12.9192L23.1331 12.9288L23.299 12.7926L23.7423 12.5458L24.0976 12.6778L24.1943 13.1563L24.4887 13.6583L25.0118 13.991L25.6922 14.5683L26.1294 14.3641L26.3568 14.5769L26.359 14.713L27.7576 15.334L28.3805 15.3073L28.5081 15.2285L28.674 15.1979L29.211 15.3775L29.3619 16.0208L29.8065 16.5184L29.9648 16.5907L30.4955 17.0213L30.5252 17.1686L30.6763 17.4875L30.839 17.5417L32 17.3143L21.3099 23.473L19.2619 24.0429L19.3291 24.1951L19.4449 24.7034L19.3343 25.9302L19.4545 26.361L19.8107 27.1521L20.8304 28.7172L21.1079 28.9915L21.8511 29.3914L22.083 29.7445L22.454 30.4835L22.3021 30.5738L16.4037 30.3324L15.8593 30.2973L15.4309 30.1991L14.8992 30.2948L12.7268 30.548L12.2516 31.503L12.3007 31.7103L12.0308 32.5227L11.9373 32.7332L11.833 32.8343L11.36 33.0796L10.5476 33.3326L9.42263 33.641L9.03767 33.6474L8.39312 33.5176L7.87125 33.3316L7.08317 32.8137L6.02961 31.6482L5.87626 31.4335L5.70304 30.9428L5.45769 30.6322L4.16393 29.386Z"/>
</mask>
<path d="M4.16393 29.386L2.67756 27.8837L2.49772 27.8177L2.4192 27.7274L2.36179 27.5817L2.32229 26.9862L1.57592 25.7155L1.47164 25.6103L1.08349 25.6061L0.791026 25.3997L0.688957 25.1328L0.681598 24.9277L0.785874 24.4173L0.74539 24.159L0.240447 23.6482L0.087345 23.1761L0.100104 22.535L0 21.7044L0.203155 21.1431L0.119242 20.0564L0.333928 18.7847L0.486048 18.3953L0.655098 18.3156L1.13673 17.6553L1.12299 17.5287L0.97406 17.4448L0.855063 16.8037L0.904134 16.642L1.24125 16.1422L1.4763 16.0156L2.18783 15.1225L2.7259 14.6897L3.21661 13.0831L3.34199 12.5068L3.25906 12.1039L3.31549 11.2405L3.38149 11.1554L3.46663 11.0756L3.54024 10.9181L3.46663 10.5864L3.54024 10.0878L3.7029 9.55935L3.71664 9.3876L3.5552 8.88683L3.38075 8.57081L3.47006 7.71207L3.53925 7.59405L4.26869 7.359L4.53859 7.12714L4.49393 6.78364L4.61514 6.21933L4.72456 6.05224L5.08843 5.97152L5.90178 5.9801L6.64496 5.57183L6.76936 5.46854L6.9151 5.23251L6.90234 5.08897L7.49978 4.22336L7.94535 3.46276L8.1144 2.93009L8.02312 2.85354L7.8369 2.84176L8.24738 2.5228L8.40588 2.51127L8.72484 2.58659L9.63266 1.95505L10.2036 1.2948L10.897 0.872539L11.1786 0.491011L11.2819 0.406855L11.6114 0.352631L11.636 0.462305L11.5764 0.616388L11.3636 0.785438L11.385 1.57327L11.6424 2.3167L12.0401 2.99388L12.1112 3.56286L11.5786 4.56244L11.6392 5.13216L11.8666 5.83927L12.0698 6.32606L12.1804 6.38445L12.4388 6.38985L12.5386 6.46002L12.8257 6.98214L12.612 7.5094L12.7057 7.72851L12.9322 7.83818L13.099 7.44046L13.3998 7.74446L13.5022 8.0433L13.6435 8.91529L13.6891 9.02153L13.8179 9.13955L14.7557 9.23524L14.8538 9.30541L15.1357 9.89671L15.7842 10.2284L16.3264 10.3985L16.4307 11.0759L16.8358 11.4842L17.0954 11.6314L17.5228 11.7069L17.8153 11.691L18.1502 11.7261L18.8838 11.9025L18.989 12.0068L19.4825 12.0632L19.6397 11.9611L19.7896 11.7707L20.1822 11.5867L20.8552 11.6441L21.9301 12.1886L21.9684 12.3279L22.2299 12.6447L22.716 12.9192L23.1331 12.9288L23.299 12.7926L23.7423 12.5458L24.0976 12.6778L24.1943 13.1563L24.4887 13.6583L25.0118 13.991L25.6922 14.5683L26.1294 14.3641L26.3568 14.5769L26.359 14.713L27.7576 15.334L28.3805 15.3073L28.5081 15.2285L28.674 15.1979L29.211 15.3775L29.3619 16.0208L29.8065 16.5184L29.9648 16.5907L30.4955 17.0213L30.5252 17.1686L30.6763 17.4875L30.839 17.5417L32 17.3143L21.3099 23.473L19.2619 24.0429L19.3291 24.1951L19.4449 24.7034L19.3343 25.9302L19.4545 26.361L19.8107 27.1521L20.8304 28.7172L21.1079 28.9915L21.8511 29.3914L22.083 29.7445L22.454 30.4835L22.3021 30.5738L16.4037 30.3324L15.8593 30.2973L15.4309 30.1991L14.8992 30.2948L12.7268 30.548L12.2516 31.503L12.3007 31.7103L12.0308 32.5227L11.9373 32.7332L11.833 32.8343L11.36 33.0796L10.5476 33.3326L9.42263 33.641L9.03767 33.6474L8.39312 33.5176L7.87125 33.3316L7.08317 32.8137L6.02961 31.6482L5.87626 31.4335L5.70304 30.9428L5.45769 30.6322L4.16393 29.386Z" fill="white" stroke="#AD0F31" stroke-width="0.743142" stroke-miterlimit="10" mask="url(#path-1-inside-1_496_14927)"/>
</svg>
