<svg width="20" height="21" viewBox="0 0 20 21" fill="none" xmlns="http://www.w3.org/2000/svg">
<path fill-rule="evenodd" clip-rule="evenodd" d="M4.35897 11.8084C8.53231 11.8084 8.71795 13.2238 8.71795 16.1674C8.71795 17.6423 8.71795 18.6915 8.09846 19.4597C7.38564 20.3448 6.08821 20.5264 4.35897 20.5264C2.62974 20.5264 1.33231 20.3448 0.619487 19.4597C0 18.6915 0 17.6433 0 16.193L0.769231 16.1674H0C0 13.2238 0.185641 11.8084 4.35897 11.8084ZM15.641 11.8084C19.8144 11.8084 20 13.2238 20 16.1674C20 17.6423 20 18.6915 19.3805 19.4597C18.6677 20.3448 17.3703 20.5264 15.641 20.5264C13.9118 20.5264 12.6144 20.3448 11.9015 19.4597C11.2821 18.6915 11.2821 17.6433 11.2821 16.193L12.0513 16.1674H11.2821C11.2821 13.2238 11.4677 11.8084 15.641 11.8084ZM4.57042 13.3473L4.35897 13.3469C1.6831 13.3469 1.54588 13.5389 1.53884 15.7849L1.53927 16.6599C1.54413 17.5532 1.57817 18.1985 1.81641 18.4956C2.08821 18.832 2.89538 18.9879 4.35897 18.9879C5.82256 18.9879 6.62974 18.831 6.90154 18.4946C7.17949 18.1489 7.17949 17.3284 7.17949 16.192C7.17949 13.6277 7.17949 13.3594 4.57042 13.3473ZM15.8525 13.3473L15.641 13.3469C12.9652 13.3469 12.8279 13.5389 12.8209 15.7849L12.8213 16.6599C12.8262 17.5532 12.8602 18.1985 13.0985 18.4956C13.3703 18.832 14.1774 18.9879 15.641 18.9879C17.1046 18.9879 17.9118 18.831 18.1836 18.4946C18.4615 18.1489 18.4615 17.3284 18.4615 16.192C18.4615 13.6277 18.4615 13.3594 15.8525 13.3473ZM4.35897 0.526367C8.53231 0.526367 8.71795 1.94175 8.71795 4.88534C8.71795 6.36021 8.71795 7.40944 8.09846 8.17765C7.38564 9.06278 6.08821 9.24432 4.35897 9.24432C2.62974 9.24432 1.33231 9.06278 0.619487 8.17765C0 7.40944 0 6.36124 0 4.91098L0.769231 4.88534H0C0 1.94175 0.185641 0.526367 4.35897 0.526367ZM15.641 0.526367C19.8144 0.526367 20 1.94175 20 4.88534C20 6.36021 20 7.40944 19.3805 8.17765C18.6677 9.06278 17.3703 9.24432 15.641 9.24432C13.9118 9.24432 12.6144 9.06278 11.9015 8.17765C11.2821 7.40944 11.2821 6.36124 11.2821 4.91098L12.0513 4.88534H11.2821C11.2821 1.94175 11.4677 0.526367 15.641 0.526367ZM4.57042 2.06529L4.35897 2.06483C1.6831 2.06483 1.54588 2.25684 1.53884 4.50283L1.53927 5.37783C1.54413 6.27113 1.57817 6.9164 1.81641 7.21355C2.08821 7.54996 2.89538 7.70585 4.35897 7.70585C5.82256 7.70585 6.62974 7.54893 6.90154 7.21252C7.17949 6.86688 7.17949 6.04637 7.17949 4.90996C7.17949 2.34564 7.17949 2.07736 4.57042 2.06529ZM15.8525 2.06529L15.641 2.06483C12.9652 2.06483 12.8279 2.25684 12.8209 4.50283L12.8213 5.37783C12.8262 6.27113 12.8602 6.9164 13.0985 7.21355C13.3703 7.54996 14.1774 7.70585 15.641 7.70585C17.1046 7.70585 17.9118 7.54893 18.1836 7.21252C18.4615 6.86688 18.4615 6.04637 18.4615 4.90996C18.4615 2.34564 18.4615 2.07736 15.8525 2.06529Z" fill="#222222"/>
</svg>
