<svg width="32" height="32" viewBox="0 0 32 32" fill="none" xmlns="http://www.w3.org/2000/svg">
<mask id="path-1-inside-1_496_14926" fill="white">
<path d="M4.01333 31.4887L3.14036 30.7671L2.05493 29.6673L1.81761 29.1594L1.78642 28.8398L1.85976 27.0382L2.14471 26.1745L2.26317 24.7367L2.73274 23.3811L3.32287 22.1793L3.46198 21.6478L2.80988 19.0344L2.78038 18.4737L3.2352 16.8605L4.08457 16.3471L4.90696 16.1992L5.50047 16.1718L5.84401 16.0753L7.14273 15.3587L8.14554 14.3757L8.62607 13.6743L8.01612 12.7553L7.76026 11.8786L7.79482 11.4545L7.47742 10.6722L6.95473 10.2194L6.26047 10.1608L6.02863 10.2228L5.75844 10.4036L4.85765 10.3615L3.42447 9.70391L2.69185 9.21073L2.60249 8.91271L1.42223 7.48628L1.21905 6.87212L1.59842 6.10495L1.51791 4.92679L2.24293 4.22326L2.31079 4.01713L2.29056 3.82323L2.119 3.66642L0.598989 3.40888L0.372626 2.15737L0 1.26416L0.0729228 0.511322L2.02374 0.988058L2.77995 1.23465L2.99072 1.1415L3.85484 2.21385L3.95516 2.67079L4.52001 3.02318L5.72177 3.58592L5.73821 3.34312L5.6577 3.07629L5.98143 2.70703L6.88012 2.04609L7.35307 1.83237L7.96132 1.84333L9.0282 2.2324L9.62761 3.18209L10.302 3.54924H10.6275L11.2138 3.35197L11.5662 2.9726L11.9426 2.95236L12.2402 3.48222L12.4725 3.63018L12.4961 4.26963L12.8101 5.06041L14.9679 7.49766L15.3549 8.3504L15.7679 8.42922L15.9635 8.38707L16.1444 8.22479L16.2649 7.98916L16.3159 7.28732L16.4567 7.12292L17.7883 7.14147L17.5354 9.17827L17.8844 13.8951L17.8988 15.9117L18.1803 16.6789L18.2646 17.3731L18.2554 18.1293L18.4016 20.6943L18.5551 20.8208L19.9486 20.9396L20.7655 20.3917L21.9492 21.0691L32 21.0328L31.3496 21.9205L31.4263 26.2133L24.3422 26.2445L15.6208 26.1885L15.0143 25.7594L14.7639 25.4086L13.7944 25.149L13.6978 25.3994L13.716 26.4414L13.5697 27.2924L13.4432 27.5099L13.2607 27.6288L12.0514 27.539L10.8458 27.053L10.1334 26.4119L9.45015 25.643L8.82882 25.5313L8.48907 26.0704L8.42163 26.5451L8.21888 27.0163L7.74002 27.1171L7.38931 26.9485L6.99856 26.543L5.47307 25.7644L4.71686 25.675L4.57606 25.9621L4.01333 31.4887Z"/>
</mask>
<path d="M4.01333 31.4887L3.14036 30.7671L2.05493 29.6673L1.81761 29.1594L1.78642 28.8398L1.85976 27.0382L2.14471 26.1745L2.26317 24.7367L2.73274 23.3811L3.32287 22.1793L3.46198 21.6478L2.80988 19.0344L2.78038 18.4737L3.2352 16.8605L4.08457 16.3471L4.90696 16.1992L5.50047 16.1718L5.84401 16.0753L7.14273 15.3587L8.14554 14.3757L8.62607 13.6743L8.01612 12.7553L7.76026 11.8786L7.79482 11.4545L7.47742 10.6722L6.95473 10.2194L6.26047 10.1608L6.02863 10.2228L5.75844 10.4036L4.85765 10.3615L3.42447 9.70391L2.69185 9.21073L2.60249 8.91271L1.42223 7.48628L1.21905 6.87212L1.59842 6.10495L1.51791 4.92679L2.24293 4.22326L2.31079 4.01713L2.29056 3.82323L2.119 3.66642L0.598989 3.40888L0.372626 2.15737L0 1.26416L0.0729228 0.511322L2.02374 0.988058L2.77995 1.23465L2.99072 1.1415L3.85484 2.21385L3.95516 2.67079L4.52001 3.02318L5.72177 3.58592L5.73821 3.34312L5.6577 3.07629L5.98143 2.70703L6.88012 2.04609L7.35307 1.83237L7.96132 1.84333L9.0282 2.2324L9.62761 3.18209L10.302 3.54924H10.6275L11.2138 3.35197L11.5662 2.9726L11.9426 2.95236L12.2402 3.48222L12.4725 3.63018L12.4961 4.26963L12.8101 5.06041L14.9679 7.49766L15.3549 8.3504L15.7679 8.42922L15.9635 8.38707L16.1444 8.22479L16.2649 7.98916L16.3159 7.28732L16.4567 7.12292L17.7883 7.14147L17.5354 9.17827L17.8844 13.8951L17.8988 15.9117L18.1803 16.6789L18.2646 17.3731L18.2554 18.1293L18.4016 20.6943L18.5551 20.8208L19.9486 20.9396L20.7655 20.3917L21.9492 21.0691L32 21.0328L31.3496 21.9205L31.4263 26.2133L24.3422 26.2445L15.6208 26.1885L15.0143 25.7594L14.7639 25.4086L13.7944 25.149L13.6978 25.3994L13.716 26.4414L13.5697 27.2924L13.4432 27.5099L13.2607 27.6288L12.0514 27.539L10.8458 27.053L10.1334 26.4119L9.45015 25.643L8.82882 25.5313L8.48907 26.0704L8.42163 26.5451L8.21888 27.0163L7.74002 27.1171L7.38931 26.9485L6.99856 26.543L5.47307 25.7644L4.71686 25.675L4.57606 25.9621L4.01333 31.4887Z" fill="white" stroke="#AD0F31" stroke-width="0.743142" stroke-miterlimit="10" mask="url(#path-1-inside-1_496_14926)"/>
</svg>
