<svg width="33" height="36" viewBox="0 0 33 36" fill="none" xmlns="http://www.w3.org/2000/svg">
<mask id="path-1-inside-1_439_13776" fill="white">
<path d="M4.65224 27.6618L3.74059 25.5879L2.57182 24.0324L1.93431 23.4145L0.414916 22.3249L2.24987 21.3592L1.54065 17.7756L0 15.4661L0.913762 13.6708L1.45034 13.5698L2.34126 13.5443L2.76944 13.3874L2.9607 13.2034L3.19552 12.77L3.45105 11.0992L3.48347 10.5988L3.11742 9.91438L2.86401 8.40254L2.76944 7.2135L1.68515 5.15341L1.30531 4.73172L1.24793 1.58787L1.38127 1.26296L1.85941 0.719478L2.79867 0L5.60106 2.69875L6.13497 3.37197L6.51005 4.43552L6.84208 4.90082L9.1233 7.42674L10.8297 8.54931L11.9602 8.9524L13.3553 9.23371L14.1888 9.21988L16.6247 8.55144L18.3837 8.00319L19.4079 7.47142L19.6337 7.25285L19.8361 6.79659L20.4205 5.03589L20.3143 4.58655L21.3433 2.51688L26.0471 1.96808L27.1983 1.76069L26.9327 2.55836L27.0087 3.56872L27.2552 4.26003L27.4762 5.50437L27.7158 8.06008L27.0182 10.042L26.4631 10.9779L26.0232 12.0909L26.0673 13.1119L26.2054 13.5565L27.0432 15.2321L30.6212 17.5719L31.1966 18.0324L32.5136 19.6341L32.6336 19.8787L32.5805 20.7407L31.162 20.7477L30.4714 21.2683L30.4618 21.8607L30.294 22.2015L28.4292 24.9136L27.6579 25.7203L26.9741 26.2824L26.8817 26.5483L26.9141 26.9583L27.7545 27.8894L29.5523 30.8184L30.1835 32.8349L30.3561 33.0125L30.7014 33.1391L31.6046 33.849L31.7379 35.0221L31.1461 35.8702L30.771 35.2018L30.2966 35.2273L29.8525 35.7059L29.1135 35.9548H28.7034L27.8534 35.4916L27.0979 34.2935L25.7533 33.8027L24.9867 33.7889L24.3906 34.0585L23.2532 34.8912L22.8452 35.3571L22.9466 35.6937L22.9259 36L21.4113 35.2901L20.6994 34.8455L20.573 34.2691L19.4839 32.9162L17.9735 31.7389L16.9604 30.6222L16.0626 29.4214L15.3119 28.7073L14.1432 27.8564L13.3303 27.4714L12.6928 27.6139L12.0171 26.8296L11.6898 26.2053L11.4571 26.076L10.7713 25.9814L9.76984 26.1941L7.93487 27.6065L7.56299 27.6666L6.61894 27.5602L4.65224 27.6618Z"/>
</mask>
<path d="M4.65224 27.6618L3.74059 25.5879L2.57182 24.0324L1.93431 23.4145L0.414916 22.3249L2.24987 21.3592L1.54065 17.7756L0 15.4661L0.913762 13.6708L1.45034 13.5698L2.34126 13.5443L2.76944 13.3874L2.9607 13.2034L3.19552 12.77L3.45105 11.0992L3.48347 10.5988L3.11742 9.91438L2.86401 8.40254L2.76944 7.2135L1.68515 5.15341L1.30531 4.73172L1.24793 1.58787L1.38127 1.26296L1.85941 0.719478L2.79867 0L5.60106 2.69875L6.13497 3.37197L6.51005 4.43552L6.84208 4.90082L9.1233 7.42674L10.8297 8.54931L11.9602 8.9524L13.3553 9.23371L14.1888 9.21988L16.6247 8.55144L18.3837 8.00319L19.4079 7.47142L19.6337 7.25285L19.8361 6.79659L20.4205 5.03589L20.3143 4.58655L21.3433 2.51688L26.0471 1.96808L27.1983 1.76069L26.9327 2.55836L27.0087 3.56872L27.2552 4.26003L27.4762 5.50437L27.7158 8.06008L27.0182 10.042L26.4631 10.9779L26.0232 12.0909L26.0673 13.1119L26.2054 13.5565L27.0432 15.2321L30.6212 17.5719L31.1966 18.0324L32.5136 19.6341L32.6336 19.8787L32.5805 20.7407L31.162 20.7477L30.4714 21.2683L30.4618 21.8607L30.294 22.2015L28.4292 24.9136L27.6579 25.7203L26.9741 26.2824L26.8817 26.5483L26.9141 26.9583L27.7545 27.8894L29.5523 30.8184L30.1835 32.8349L30.3561 33.0125L30.7014 33.1391L31.6046 33.849L31.7379 35.0221L31.1461 35.8702L30.771 35.2018L30.2966 35.2273L29.8525 35.7059L29.1135 35.9548H28.7034L27.8534 35.4916L27.0979 34.2935L25.7533 33.8027L24.9867 33.7889L24.3906 34.0585L23.2532 34.8912L22.8452 35.3571L22.9466 35.6937L22.9259 36L21.4113 35.2901L20.6994 34.8455L20.573 34.2691L19.4839 32.9162L17.9735 31.7389L16.9604 30.6222L16.0626 29.4214L15.3119 28.7073L14.1432 27.8564L13.3303 27.4714L12.6928 27.6139L12.0171 26.8296L11.6898 26.2053L11.4571 26.076L10.7713 25.9814L9.76984 26.1941L7.93487 27.6065L7.56299 27.6666L6.61894 27.5602L4.65224 27.6618Z" fill="white" stroke="#AD0F31" stroke-width="0.743142" stroke-miterlimit="10" mask="url(#path-1-inside-1_439_13776)"/>
</svg>
