<svg width="32" height="27" viewBox="0 0 32 27" fill="none" xmlns="http://www.w3.org/2000/svg">
<path d="M31.7193 6.68047L29.1218 2.09717C28.9393 1.77508 28.6784 1.50732 28.3637 1.31537C28.1438 1.12262 27.8093 1.14255 27.6142 1.36117L22.5083 7.08378L19.7089 3.25682C19.535 3.01906 19.2014 2.96726 18.9634 3.14121C18.7258 3.31515 18.674 3.64885 18.8479 3.88661L21.8714 8.01986L15.9278 25.0659C15.6315 25.0465 15.3548 24.9102 15.1606 24.6825C0.773074 7.81438 1.34873 8.48977 1.32766 8.46444H5.25269C5.54725 8.46444 5.78608 8.22562 5.78608 7.93105C5.78608 7.63649 5.54725 7.39767 5.25269 7.39767H1.12411C1.17531 7.24519 0.993628 7.58509 3.80616 2.62309C3.84136 2.56102 3.88223 2.50341 3.9277 2.45027L9.06398 8.20701L13.7111 21.5347C13.7878 21.7547 13.9941 21.8926 14.2147 21.8926C14.5798 21.8926 14.8397 21.5312 14.7184 21.1834L10.2834 8.46444H18.6818C18.9764 8.46444 19.2152 8.22562 19.2152 7.93105C19.2152 7.63649 18.9764 7.39767 18.6818 7.39767H9.77158L5.0126 2.06384H13.1636L11.2054 4.74082C10.9447 5.09726 11.2067 5.58917 11.6354 5.58917C11.7998 5.58917 11.9619 5.51343 12.0664 5.37068L14.4854 2.06384H23.6381C23.9326 2.06384 24.1715 1.82501 24.1715 1.53045C24.1715 1.23589 23.9326 0.99707 23.6381 0.99707H4.76591C4.44482 0.99707 4.13372 1.06954 3.8515 1.20096C3.77275 1.22169 3.69721 1.26056 3.63234 1.3185C3.32425 1.50745 3.06202 1.77254 2.87807 2.09711L0.280494 6.68047C0.0573398 7.07431 -0.0308685 7.51895 0.00946866 7.95159C0.0107354 7.98533 0.0149358 8.01826 0.0222032 8.05007C0.0780084 8.4511 0.243691 8.83774 0.517383 9.15857L14.3489 25.3748C15.2155 26.3909 16.7853 26.3897 17.6509 25.3748L31.4824 9.15857C32.0722 8.4671 32.1674 7.47121 31.7193 6.68047ZM30.6707 8.4663L17.4344 23.9847L22.8461 8.46444H27.4311C27.7257 8.46444 27.9645 8.22562 27.9645 7.93105C27.9645 7.63649 27.7257 7.39767 27.4311 7.39767H23.658L28.072 2.45041C28.173 2.56862 27.9428 2.18005 30.7912 7.20639C31.019 7.60842 30.9706 8.11474 30.6707 8.4663Z" fill="#222222"/>
</svg>
