<svg width="20" height="20" viewBox="0 0 20 20" fill="none" xmlns="http://www.w3.org/2000/svg">
<path fill-rule="evenodd" clip-rule="evenodd" d="M11.9469 1.63587L12.617 2.30596C12.8764 2.56354 13.2229 2.70654 13.5914 2.70654H14.5337C16.0563 2.70654 17.2947 3.94496 17.2947 5.46754V6.40896C17.2947 6.77654 17.4377 7.12396 17.6972 7.38521L18.3553 8.04429C18.8769 8.56221 19.1666 9.25429 19.1693 9.99221C19.1721 10.7301 18.887 11.424 18.3672 11.9475L17.6953 12.6175C17.4377 12.877 17.2947 13.2225 17.2947 13.591V14.5343C17.2947 16.056 16.0563 17.2944 14.5347 17.2944H13.5896C13.2266 17.2944 12.8718 17.441 12.6142 17.6968L11.9561 18.355C11.418 18.8967 10.7085 19.168 9.99899 19.168C9.29591 19.168 8.59282 18.9022 8.05474 18.3687C8.04741 18.3614 8.04007 18.354 8.03274 18.3458L7.38191 17.6959C7.12249 17.4383 6.77599 17.2953 6.40749 17.2944H5.46699C3.94441 17.2944 2.70691 16.056 2.70691 14.5343V13.5892C2.70691 13.2207 2.56299 12.8751 2.30449 12.6148L1.64541 11.9566C0.574741 10.8915 0.561908 9.15712 1.61332 8.07546L1.63807 8.05071L2.30541 7.38154C2.56299 7.12212 2.70691 6.77471 2.70691 6.40712V5.46754C2.70691 3.94587 3.94441 2.70746 5.46607 2.70654H6.41024C6.77782 2.70654 7.12432 2.56262 7.38741 2.30321L8.04282 1.64596C9.11441 0.567039 10.8662 0.561539 11.9469 1.63587ZM9.01724 2.61671L8.35816 3.27762C7.83199 3.79737 7.14174 4.08154 6.41024 4.08154H5.46699C4.70341 4.08246 4.08191 4.70396 4.08191 5.46754V6.40712C4.08191 7.14137 3.79682 7.83162 3.27982 8.35229L2.62899 9.00404C2.62257 9.01137 2.61616 9.01687 2.60974 9.02329C2.07166 9.56504 2.07441 10.4441 2.61616 10.9822L3.27799 11.644C3.79682 12.1647 4.08191 12.855 4.08191 13.5892V14.5343C4.08191 15.2979 4.70249 15.9194 5.46699 15.9194H6.40841C7.14358 15.9203 7.83383 16.2054 8.35358 16.7233L9.01449 17.3824L9.03282 17.4025C9.57366 17.9305 10.4445 17.9241 10.9817 17.3842L11.6435 16.7242C12.1568 16.2118 12.8663 15.9194 13.5896 15.9194H14.5337C15.2982 15.9194 15.9197 15.2979 15.9197 14.5343V13.591C15.9197 12.8568 16.2039 12.1665 16.7227 11.6468L17.3827 10.9859C17.6513 10.7164 17.7952 10.3671 17.7943 9.99679C17.7934 9.62737 17.6477 9.27996 17.3846 9.01779L16.7237 8.35596C16.2039 7.83254 15.9197 7.14321 15.9197 6.40896V5.46754C15.9197 4.70304 15.2982 4.08154 14.5337 4.08154H13.5914C12.8572 4.08154 12.1669 3.79646 11.6472 3.28037L10.9853 2.61762C10.4344 2.07221 9.55533 2.07496 9.01724 2.61671ZM12.2949 11.3743C12.8018 11.3743 13.2115 11.784 13.2115 12.2909C13.2115 12.7978 12.8018 13.2076 12.2949 13.2076C11.788 13.2076 11.3736 12.7978 11.3736 12.2909C11.3736 11.784 11.7797 11.3743 12.2866 11.3743H12.2949ZM12.8429 7.15879C13.1114 7.42737 13.1114 7.86279 12.8429 8.13137L8.13027 12.843C7.99644 12.9778 7.82044 13.0447 7.64444 13.0447C7.46844 13.0447 7.29244 12.9778 7.15861 12.843C6.89002 12.5745 6.89002 12.14 7.15861 11.8714L11.8703 7.15879C12.1389 6.89021 12.5743 6.89021 12.8429 7.15879ZM7.71154 6.79093C8.21846 6.79093 8.62821 7.20068 8.62821 7.7076C8.62821 8.21451 8.21846 8.62426 7.71154 8.62426C7.20462 8.62426 6.79029 8.21451 6.79029 7.7076C6.79029 7.20068 7.19637 6.79093 7.70329 6.79093H7.71154Z" fill="#222222"/>
</svg>
