<svg width="20" height="22" viewBox="0 0 20 22" fill="none" xmlns="http://www.w3.org/2000/svg">
<path d="M7.10452 19.7614V16.5428C7.10452 15.7211 7.74862 15.0551 8.54316 15.0551H11.4476C11.8291 15.0551 12.1951 15.2118 12.4649 15.4908C12.7347 15.7698 12.8862 16.1482 12.8862 16.5428V19.7614C12.8838 20.103 13.0134 20.4314 13.2461 20.6739C13.4788 20.9163 13.7955 21.0526 14.1258 21.0526H16.1073C17.0328 21.0551 17.9212 20.6767 18.5764 20.0008C19.2317 19.325 19.5999 18.4073 19.5999 17.4503V8.2809C19.5999 7.50785 19.2685 6.77457 18.6951 6.2786L11.9543 0.711441C10.7817 -0.264672 9.10166 -0.233156 7.96409 0.786294L1.37709 6.2786C0.776567 6.75995 0.417639 7.49541 0.399902 8.2809V17.441C0.399902 19.4356 1.96357 21.0526 3.89246 21.0526H5.82874C6.51483 21.0526 7.0724 20.4802 7.07738 19.7708L7.10452 19.7614Z" fill="#AD0F31"/>
</svg>
