<svg width="20" height="22" viewBox="0 0 20 22" fill="none" xmlns="http://www.w3.org/2000/svg">
<path d="M13.3863 19.7649V19.7614V16.5428C13.3863 16.0209 13.186 15.5172 12.8244 15.1432C12.4622 14.7687 11.9674 14.5551 11.4477 14.5551H8.54325C7.4569 14.5551 6.60461 15.4609 6.60461 16.5428V19.4049L6.57996 19.4134L6.57748 19.7673C6.57432 20.2177 6.22465 20.5526 5.82883 20.5526H3.89255C2.25548 20.5526 0.899994 19.1754 0.899994 17.441V8.28684C0.915981 7.64756 1.20877 7.05439 1.6899 6.66874L1.68996 6.66881L1.69739 6.66262L8.28438 1.17031L8.29123 1.1646L8.29787 1.15865C9.25104 0.304452 10.6529 0.278608 11.6345 1.09572L11.636 1.09696L18.3722 6.66029C18.8309 7.05915 19.1 7.65163 19.1 8.2809V17.4503C19.1 18.2798 18.7807 19.072 18.2175 19.6528C17.6549 20.2331 16.8959 20.5547 16.1088 20.5526H16.1074H14.1259C13.9344 20.5526 13.7472 20.4737 13.6069 20.3276C13.466 20.1809 13.3848 19.9786 13.3863 19.7649Z" stroke="#222222"/>
</svg>
