<svg width="35" height="36" viewBox="0 0 35 36" fill="none" xmlns="http://www.w3.org/2000/svg">
<rect y="0.5" width="35" height="35" rx="5" fill="#AD0F31"/>
<path fill-rule="evenodd" clip-rule="evenodd" d="M23.8369 19.3503C25.6959 19.3503 27.2082 20.8551 27.2082 22.7043C27.2082 24.5536 25.6959 26.0583 23.8369 26.0583C21.9768 26.0583 20.4634 24.5536 20.4634 22.7043C20.4634 20.8551 21.9768 19.3503 23.8369 19.3503ZM23.8369 20.9753C22.8727 20.9753 22.0884 21.751 22.0884 22.7043C22.0884 23.6587 22.8727 24.4333 23.8369 24.4333C24.8 24.4333 25.5832 23.6587 25.5832 22.7043C25.5832 21.751 24.8 20.9753 23.8369 20.9753ZM15.9203 21.9338C16.3688 21.9338 16.7328 22.2978 16.7328 22.7463C16.7328 23.1948 16.3688 23.5588 15.9203 23.5588H9.09424C8.64574 23.5588 8.28174 23.1948 8.28174 22.7463C8.28174 22.2978 8.64574 21.9338 9.09424 21.9338H15.9203ZM11.6224 8.83331C13.4825 8.83331 14.9948 10.3391 14.9948 12.1884C14.9948 14.0376 13.4825 15.5413 11.6224 15.5413C9.76342 15.5413 8.25 14.0376 8.25 12.1884C8.25 10.3391 9.76342 8.83331 11.6224 8.83331ZM11.6224 10.4583C10.6593 10.4583 9.875 11.234 9.875 12.1884C9.875 13.1417 10.6593 13.9163 11.6224 13.9163C12.5866 13.9163 13.3698 13.1417 13.3698 12.1884C13.3698 11.234 12.5866 10.4583 11.6224 10.4583ZM25.7904 11.4337C26.2389 11.4337 26.6029 11.7977 26.6029 12.2462C26.6029 12.6947 26.2389 13.0587 25.7904 13.0587H18.9654C18.5169 13.0587 18.1529 12.6947 18.1529 12.2462C18.1529 11.7977 18.5169 11.4337 18.9654 11.4337H25.7904Z" fill="white"/>
</svg>
