<svg width="26" height="9" viewBox="0 0 26 9" fill="none" xmlns="http://www.w3.org/2000/svg">
<path d="M0.14 1.05261H0.88V8.05261H0.14V1.05261ZM5.68758 2.75261C6.34758 2.75261 6.87091 2.94595 7.25758 3.33261C7.65091 3.71261 7.84758 4.26928 7.84758 5.00261V8.05261H7.13758V5.07261C7.13758 4.52595 7.00091 4.10928 6.72758 3.82261C6.45424 3.53595 6.06424 3.39261 5.55758 3.39261C4.99091 3.39261 4.54091 3.56261 4.20758 3.90261C3.88091 4.23595 3.71758 4.69928 3.71758 5.29261V8.05261H3.00758V2.79261H3.68758V3.76261C3.88091 3.44261 4.14758 3.19595 4.48758 3.02261C4.83424 2.84261 5.23425 2.75261 5.68758 2.75261ZM9.77516 2.79261H10.4852V8.05261H9.77516V2.79261ZM10.1352 1.64261C9.98849 1.64261 9.86516 1.59261 9.76516 1.49261C9.66516 1.39261 9.61516 1.27261 9.61516 1.13261C9.61516 0.999279 9.66516 0.882612 9.76516 0.782612C9.86516 0.682612 9.98849 0.632612 10.1352 0.632612C10.2818 0.632612 10.4052 0.682612 10.5052 0.782612C10.6052 0.875945 10.6552 0.989279 10.6552 1.12261C10.6552 1.26928 10.6052 1.39261 10.5052 1.49261C10.4052 1.59261 10.2818 1.64261 10.1352 1.64261ZM14.6407 8.10261C14.1207 8.10261 13.654 7.98928 13.2407 7.76261C12.834 7.53595 12.514 7.21928 12.2807 6.81261C12.0474 6.39928 11.9307 5.93595 11.9307 5.42261C11.9307 4.90928 12.0474 4.44928 12.2807 4.04261C12.514 3.63595 12.834 3.31928 13.2407 3.09261C13.654 2.86595 14.1207 2.75261 14.6407 2.75261C15.094 2.75261 15.4974 2.84261 15.8507 3.02261C16.2107 3.19595 16.494 3.45261 16.7007 3.79261L16.1707 4.15261C15.9974 3.89261 15.7774 3.69928 15.5107 3.57261C15.244 3.43928 14.954 3.37261 14.6407 3.37261C14.2607 3.37261 13.9174 3.45928 13.6107 3.63261C13.3107 3.79928 13.074 4.03928 12.9007 4.35261C12.734 4.66595 12.6507 5.02261 12.6507 5.42261C12.6507 5.82928 12.734 6.18928 12.9007 6.50261C13.074 6.80928 13.3107 7.04928 13.6107 7.22261C13.9174 7.38928 14.2607 7.47261 14.6407 7.47261C14.954 7.47261 15.244 7.40928 15.5107 7.28261C15.7774 7.15595 15.9974 6.96261 16.1707 6.70261L16.7007 7.06261C16.494 7.40261 16.2107 7.66261 15.8507 7.84261C15.4907 8.01595 15.0874 8.10261 14.6407 8.10261ZM18.0955 2.79261H18.8055V8.05261H18.0955V2.79261ZM18.4555 1.64261C18.3088 1.64261 18.1855 1.59261 18.0855 1.49261C17.9855 1.39261 17.9355 1.27261 17.9355 1.13261C17.9355 0.999279 17.9855 0.882612 18.0855 0.782612C18.1855 0.682612 18.3088 0.632612 18.4555 0.632612C18.6021 0.632612 18.7255 0.682612 18.8255 0.782612C18.9255 0.875945 18.9755 0.989279 18.9755 1.12261C18.9755 1.26928 18.9255 1.39261 18.8255 1.49261C18.7255 1.59261 18.6021 1.64261 18.4555 1.64261ZM22.931 8.10261C22.4243 8.10261 21.9677 7.98928 21.561 7.76261C21.1543 7.52928 20.8343 7.20928 20.601 6.80261C20.3677 6.39595 20.251 5.93595 20.251 5.42261C20.251 4.90928 20.3677 4.44928 20.601 4.04261C20.8343 3.63595 21.1543 3.31928 21.561 3.09261C21.9677 2.86595 22.4243 2.75261 22.931 2.75261C23.4377 2.75261 23.8943 2.86595 24.301 3.09261C24.7077 3.31928 25.0243 3.63595 25.251 4.04261C25.4843 4.44928 25.601 4.90928 25.601 5.42261C25.601 5.93595 25.4843 6.39595 25.251 6.80261C25.0243 7.20928 24.7077 7.52928 24.301 7.76261C23.8943 7.98928 23.4377 8.10261 22.931 8.10261ZM22.931 7.47261C23.3043 7.47261 23.6377 7.38928 23.931 7.22261C24.231 7.04928 24.4643 6.80595 24.631 6.49261C24.7977 6.17928 24.881 5.82261 24.881 5.42261C24.881 5.02261 24.7977 4.66595 24.631 4.35261C24.4643 4.03928 24.231 3.79928 23.931 3.63261C23.6377 3.45928 23.3043 3.37261 22.931 3.37261C22.5577 3.37261 22.221 3.45928 21.921 3.63261C21.6277 3.79928 21.3943 4.03928 21.221 4.35261C21.0543 4.66595 20.971 5.02261 20.971 5.42261C20.971 5.82261 21.0543 6.17928 21.221 6.49261C21.3943 6.80595 21.6277 7.04928 21.921 7.22261C22.221 7.38928 22.5577 7.47261 22.931 7.47261Z" fill="#AD0F31"/>
</svg>
