<svg width="17" height="36" viewBox="0 0 17 36" fill="none" xmlns="http://www.w3.org/2000/svg">
<mask id="path-1-inside-1_439_13735" fill="white">
<path d="M16.352 22.1539L15.8913 22.5068L15.6568 22.7733L15.5914 22.9327L15.6196 24.4746L15.8059 24.6814L16.3377 25.6918L16.3841 26.275L16.5083 27.0164L16.6879 27.3521L16.672 27.5975L16.5466 28.417L16.4315 28.6295L16.3377 28.7198L16.1277 28.7967L15.6907 28.8092L15.4276 28.8588L14.9794 29.7393L15.735 30.872L16.0829 32.6296L15.1829 33.1032L14.878 32.773L14.6373 32.3651L14.494 32.2407L14.3324 32.2034L14.1136 32.2417L13.4033 32.4723L12.6083 32.9358L11.9476 33.4433L10.8332 34.1621L10.823 34.3136L10.9303 34.5092L10.9494 34.6957L10.8467 34.8866L10.6904 34.9649L10.503 34.9354L9.33314 34.0617L8.55954 33.7182L8.32817 33.666L7.52045 33.6525L6.81694 33.7192L6.43419 33.8695L6.08399 34.0966L5.42922 34.9025L4.76402 35.4338L4.41409 35.6111L3.72179 35.7898L3.30959 36L2.9753 35.9478L2.07872 35.6526L1.94115 35.3396L1.90597 35.131L1.92187 34.733L1.71186 34.2594L0.961979 33.5904L0.890848 32.832L0.88303 32.0813L0.372597 31.5858L0 31.537L0.212357 31.1075L0.710277 30.6046L1.4229 30.2622L1.53338 30.148L1.91066 29.3974L2.64335 28.5203L3.1246 28.127L3.66656 27.8038L3.65509 27.6411L3.55478 27.5177L3.50267 27.1583L3.54331 26.7175L3.79058 26.4022L4.68715 26.0147L4.73927 25.8506L4.65797 25.6855L4.34765 25.5987L3.91956 25.159L3.48365 25.1511L3.33591 25.2674L2.94064 25.2369L2.82886 25.1749L2.52062 24.8525L1.34057 21.698L1.84422 20.6243L2.209 19.9665L2.6212 19.5831L2.77024 19.5922L2.92267 19.5401L2.95654 19.3836L2.61104 18.978L2.05762 18.5133L1.56543 17.8409L1.66027 16.879L1.78091 16.757L1.96851 16.6824L2.31974 16.2166L2.34345 15.7993L2.39556 15.6389L3.82628 14.4055L3.73717 14.1593L3.72231 13.6494L3.81377 13.5501L4.54567 13.3657L4.31404 12.3824L3.95838 12.1216L3.87813 11.9996L3.65587 10.9777L3.37916 10.4918L3.85442 9.66663L3.95734 9.3208L3.96072 7.9565L3.91669 7.33708L3.94483 6.52675L3.88828 6.38304V5.58966L4.42243 4.96372L4.7872 4.82236L5.19602 3.96169L5.59337 3.47685L5.79452 3.46198L6.71037 2.99878L6.94279 2.62557L7.11345 2.1136L7.33233 1.92268L7.74687 1.6671L7.8068 1.5406L7.79663 1.02185L7.83728 0.867973L7.93655 0.754003L8.18486 0.620466L9.18775 0.313232L9.4483 0.154925L9.53533 0L13.7933 1.91017L15.5211 2.77944L15.451 2.86968L15.3911 3.78747L15.4791 4.21598L15.346 4.82862L14.8249 6.5364L14.2535 6.99646L13.4979 7.94581L13.2483 8.08039L12.8903 8.61166L12.8381 8.78353L12.9645 9.46503L13.1227 9.55422L13.1373 9.6888L12.6258 10.3906L12.4463 10.4754L12.2847 10.889L12.0567 12.2411L12.1458 13.3962L11.9301 13.9929L12.0364 14.8758L12.0229 15.5573L12.1855 16.0591L12.7206 16.6028L12.7636 16.8775L12.6529 17.42L12.6607 17.638L12.7691 17.9218L13.0797 18.1411L13.4919 18.1455L13.6026 18.2574L14.3963 19.6082L14.4382 20.2411L14.4992 20.3961L14.5826 20.492L14.7736 20.5622L16.352 22.1539Z"/>
</mask>
<path d="M16.352 22.1539L15.8913 22.5068L15.6568 22.7733L15.5914 22.9327L15.6196 24.4746L15.8059 24.6814L16.3377 25.6918L16.3841 26.275L16.5083 27.0164L16.6879 27.3521L16.672 27.5975L16.5466 28.417L16.4315 28.6295L16.3377 28.7198L16.1277 28.7967L15.6907 28.8092L15.4276 28.8588L14.9794 29.7393L15.735 30.872L16.0829 32.6296L15.1829 33.1032L14.878 32.773L14.6373 32.3651L14.494 32.2407L14.3324 32.2034L14.1136 32.2417L13.4033 32.4723L12.6083 32.9358L11.9476 33.4433L10.8332 34.1621L10.823 34.3136L10.9303 34.5092L10.9494 34.6957L10.8467 34.8866L10.6904 34.9649L10.503 34.9354L9.33314 34.0617L8.55954 33.7182L8.32817 33.666L7.52045 33.6525L6.81694 33.7192L6.43419 33.8695L6.08399 34.0966L5.42922 34.9025L4.76402 35.4338L4.41409 35.6111L3.72179 35.7898L3.30959 36L2.9753 35.9478L2.07872 35.6526L1.94115 35.3396L1.90597 35.131L1.92187 34.733L1.71186 34.2594L0.961979 33.5904L0.890848 32.832L0.88303 32.0813L0.372597 31.5858L0 31.537L0.212357 31.1075L0.710277 30.6046L1.4229 30.2622L1.53338 30.148L1.91066 29.3974L2.64335 28.5203L3.1246 28.127L3.66656 27.8038L3.65509 27.6411L3.55478 27.5177L3.50267 27.1583L3.54331 26.7175L3.79058 26.4022L4.68715 26.0147L4.73927 25.8506L4.65797 25.6855L4.34765 25.5987L3.91956 25.159L3.48365 25.1511L3.33591 25.2674L2.94064 25.2369L2.82886 25.1749L2.52062 24.8525L1.34057 21.698L1.84422 20.6243L2.209 19.9665L2.6212 19.5831L2.77024 19.5922L2.92267 19.5401L2.95654 19.3836L2.61104 18.978L2.05762 18.5133L1.56543 17.8409L1.66027 16.879L1.78091 16.757L1.96851 16.6824L2.31974 16.2166L2.34345 15.7993L2.39556 15.6389L3.82628 14.4055L3.73717 14.1593L3.72231 13.6494L3.81377 13.5501L4.54567 13.3657L4.31404 12.3824L3.95838 12.1216L3.87813 11.9996L3.65587 10.9777L3.37916 10.4918L3.85442 9.66663L3.95734 9.3208L3.96072 7.9565L3.91669 7.33708L3.94483 6.52675L3.88828 6.38304V5.58966L4.42243 4.96372L4.7872 4.82236L5.19602 3.96169L5.59337 3.47685L5.79452 3.46198L6.71037 2.99878L6.94279 2.62557L7.11345 2.1136L7.33233 1.92268L7.74687 1.6671L7.8068 1.5406L7.79663 1.02185L7.83728 0.867973L7.93655 0.754003L8.18486 0.620466L9.18775 0.313232L9.4483 0.154925L9.53533 0L13.7933 1.91017L15.5211 2.77944L15.451 2.86968L15.3911 3.78747L15.4791 4.21598L15.346 4.82862L14.8249 6.5364L14.2535 6.99646L13.4979 7.94581L13.2483 8.08039L12.8903 8.61166L12.8381 8.78353L12.9645 9.46503L13.1227 9.55422L13.1373 9.6888L12.6258 10.3906L12.4463 10.4754L12.2847 10.889L12.0567 12.2411L12.1458 13.3962L11.9301 13.9929L12.0364 14.8758L12.0229 15.5573L12.1855 16.0591L12.7206 16.6028L12.7636 16.8775L12.6529 17.42L12.6607 17.638L12.7691 17.9218L13.0797 18.1411L13.4919 18.1455L13.6026 18.2574L14.3963 19.6082L14.4382 20.2411L14.4992 20.3961L14.5826 20.492L14.7736 20.5622L16.352 22.1539Z" fill="white" stroke="#AD0F31" stroke-width="0.743142" stroke-miterlimit="10" mask="url(#path-1-inside-1_439_13735)"/>
</svg>
