<svg width="32" height="28" viewBox="0 0 32 28" fill="none" xmlns="http://www.w3.org/2000/svg">
<path d="M8.53715 24.9394L6.25889 24.1053L7.39732 22.8671L7.49867 22.7568L7.41246 22.6344L6.91847 21.9327L6.9058 21.9147L6.88929 21.9002L6.2771 21.3615L6.2549 21.3419L6.22773 21.3303L5.32371 20.9417L3.90519 19.4511L3.89203 19.4373L3.87634 19.4264L2.70328 18.6145L2.09225 17.5249L2.39336 16.8491L2.42762 16.7721L2.39238 16.6957L1.70289 15.1996L1.46427 14.3188L1.38368 13.2906L1.47584 12.4819L1.48081 12.4382L1.46572 12.397L1.29854 11.9402L1.29063 11.9186L1.27768 11.8995L0.945698 11.4116L0.783018 9.69177L0.777342 9.63177L0.737524 9.58652L0.296735 9.08568L0.199342 8.86604L0.250264 8.7171L0.790282 8.3417L0.831149 8.31329L0.852341 8.26826L0.946524 8.06812L0.96654 8.02559L0.963918 7.97865L0.952308 7.77088L1.57116 7.45559L2.80258 7.13858L2.82221 7.13353L2.84028 7.12436L3.47272 6.80367L3.48969 6.79506L3.50456 6.78319L4.70681 5.82395L4.72245 5.81147L4.73507 5.79594L5.89998 4.36356L6.49254 3.97954L7.14254 3.72467L8.37772 3.60756L9.80812 3.63155L10.1899 3.71753L11.5522 4.32187L13.6499 5.88696L13.6868 5.91445L13.7322 5.92159L14.0708 5.9748L14.1295 5.98403L14.1827 5.95744L14.4653 5.81616L14.5179 5.78985L14.5458 5.73804L14.7313 5.39333L14.7583 5.34313L14.7525 5.28641L14.7182 4.94971L14.7143 4.91219L14.6962 4.87913L14.5283 4.5736L14.5368 4.4474L16.4729 3.20013L16.4793 3.19598L16.4854 3.19132L17.6698 2.28214L19.0791 1.46132L20.3314 1.05521L20.677 0.994732L20.8873 1.04324L21.0889 1.21779L21.5082 1.92813L21.5182 1.94522L21.5317 1.9598L22.0827 2.55598L22.0955 2.56989L22.1109 2.58092L23.4466 3.53781L23.9913 4.06532L25.0056 5.41391L25.7708 7.15288L25.6921 7.31797L24.8964 7.59254L24.8592 7.60537L24.8304 7.63218L24.6529 7.79748L24.6022 7.84462L24.5948 7.91341L24.4926 8.85524L24.4903 8.87652L24.4929 8.89777L24.5499 9.36492L24.556 9.41516L24.5867 9.45535L24.785 9.71435L24.8156 9.75436L24.8623 9.77341L25.4825 10.0268L25.5299 10.0461L25.5805 10.0385L26.1676 9.94966L26.7157 10.0786L26.3813 10.2848L26.0204 10.4129L25.9964 10.4214L25.9757 10.436L25.3164 10.8994L25.2462 10.9487L25.2382 11.0341L25.1017 12.4991L25.0972 12.5473L25.1167 12.5915L25.5759 13.6303L25.5843 13.6494L25.5967 13.6661L25.7719 13.9016L25.7855 13.9198L25.8031 13.9343L26.8768 14.8158L26.9 14.8349L26.928 14.8457L28.0912 15.2926L28.1204 15.3038L28.1516 15.3048L28.6786 15.3223L29.198 15.4918L29.4145 15.668L29.8892 17.1303L29.8922 17.1394L29.8961 17.1482L30.1881 17.8075L30.195 17.8231L30.2046 17.8371L30.6821 18.535L30.6879 18.5435L30.6947 18.5514L31.7902 19.8236L31.8045 19.915L31.7101 20.043L31.4967 20.1057L29.3317 20.2851L28.6255 20.267L28.6077 20.2665L28.5901 20.2695L27.8837 20.3877L27.8499 20.3933L27.8204 20.4106L27.0029 20.89L26.9846 20.9007L26.9692 20.9153L25.5611 22.2468L25.1496 22.5146L16.3593 26.3589L16.3576 26.3596L14.9804 26.946L14.664 27.0031L11.8231 25.989L11.8231 25.9889L11.8171 25.987L8.53715 24.9394Z" fill="white" stroke="#AD0F31" stroke-width="0.371571" stroke-miterlimit="10"/>
</svg>
