<svg width="34" height="33" viewBox="0 0 34 33" fill="none" xmlns="http://www.w3.org/2000/svg">
<path d="M30.7688 0.298065C30.7338 0.22782 30.6799 0.168776 30.6131 0.127619C30.5462 0.0864615 30.4692 0.0648355 30.3908 0.0651898H11.4422C11.3637 0.0648355 11.2867 0.0864615 11.2199 0.127619C11.1531 0.168776 11.0991 0.22782 11.0641 0.298065L8.59909 5.27675C8.5303 5.35453 8.49227 5.45474 8.49215 5.55856V20.506C8.11737 20.7322 7.80222 21.0448 7.57307 21.4177C7.34392 21.7906 7.20744 22.2131 7.17505 22.6496C6.93913 22.8295 6.6734 22.9665 6.39001 23.0544L6.38868 23.0439C6.34685 22.9061 6.26198 22.7852 6.14649 22.699C6.03099 22.6129 5.89095 22.566 5.74686 22.5652H1.34038C1.23655 22.5656 1.13422 22.59 1.04135 22.6364C0.948486 22.6829 0.867581 22.7501 0.804932 22.8329C0.742283 22.9157 0.69958 23.0118 0.680144 23.1138C0.660709 23.2158 0.665064 23.3209 0.692872 23.421L3.02106 31.7779C3.06084 31.919 3.14564 32.0433 3.26254 32.1318C3.37945 32.2204 3.52207 32.2683 3.66871 32.2683H8.33113C8.43603 32.2687 8.53956 32.2445 8.63337 32.1975C8.72718 32.1506 8.80865 32.0823 8.87121 31.9981C8.93377 31.9139 8.97567 31.8161 8.99354 31.7128C9.0114 31.6094 9.00473 31.5033 8.97407 31.403L8.36713 29.4131L10.5651 28.0239C10.8482 27.8681 11.1799 27.8255 11.4932 27.9048C11.5059 27.908 11.5187 27.9106 11.5315 27.9126L15.4124 28.5127C16.5274 28.6854 17.6671 28.4456 18.6181 27.8384L26.219 22.9871H32.9099C33.0167 22.9871 33.1191 22.9447 33.1946 22.8692C33.27 22.7937 33.3125 22.6913 33.3125 22.5845V5.69757C33.3449 5.59421 33.3361 5.48232 33.2881 5.38524L30.7688 0.298065ZM21.3593 0.90894H30.1288L32.219 5.12769H21.3593V0.90894ZM20.9164 5.99429C20.9627 5.99421 21.0086 5.98649 21.0524 5.97144H23.8906V8.99488H18.1953V5.97144H20.7804C20.8241 5.98648 20.8701 5.9942 20.9164 5.99429ZM3.79893 31.4246L1.56636 23.4089H5.60933L8.07027 31.4246H3.79893ZM18.1641 27.1414C17.3853 27.6359 16.4528 27.8295 15.5415 27.6858L11.6789 27.0849C11.1592 26.9583 10.6109 27.0332 10.1441 27.2944C10.1376 27.2981 10.1311 27.3014 10.1247 27.3051L8.10958 28.5785L6.64033 23.8519C7.09474 23.7078 7.51372 23.4696 7.87002 23.1529C7.91414 23.1164 7.94968 23.0707 7.97411 23.0189C7.99854 22.9672 8.01125 22.9107 8.01135 22.8535C8.01195 22.6021 8.06216 22.3533 8.15912 22.1213C8.25607 21.8894 8.39786 21.6789 8.57635 21.5019C8.75484 21.3248 8.96652 21.1848 9.19925 21.0897C9.43198 20.9947 9.68118 20.9465 9.93257 20.948H10.0643C10.4756 20.9458 10.8813 20.8519 11.2518 20.6733C11.6223 20.4946 11.9483 20.2357 12.2062 19.9153L13.8776 17.8582C14.0387 17.6578 14.2692 17.5253 14.5234 17.4869C14.7776 17.4484 15.037 17.5068 15.2502 17.6505L15.2784 17.6673C15.496 17.813 15.6532 18.0329 15.7205 18.286C15.7877 18.5391 15.7606 18.8081 15.644 19.0426C14.976 20.3705 13.9827 22.3473 13.9827 22.3473C13.9504 22.4141 13.9351 22.4879 13.9383 22.5621C13.9414 22.6362 13.9628 22.7085 14.0006 22.7723C14.0377 22.8353 14.09 22.888 14.1527 22.9256C14.2154 22.9631 14.2865 22.9842 14.3596 22.9871H24.6962L18.1641 27.1414ZM18.4062 22.1433V18.1144L18.6853 18.4063C18.7245 18.4474 18.7716 18.4802 18.8237 18.5028C18.8758 18.5254 18.9319 18.5373 18.9887 18.5378C19.0455 18.5379 19.1016 18.5268 19.154 18.505C19.2064 18.4833 19.2539 18.4514 19.2939 18.4112L20.0297 17.6613L20.756 18.4097C20.7953 18.4503 20.8424 18.4825 20.8944 18.5045C20.9464 18.5265 21.0023 18.5378 21.0588 18.5378C21.1153 18.5378 21.1712 18.5265 21.2232 18.5045C21.2752 18.4825 21.3223 18.4503 21.3616 18.4097L22.0878 17.6615L22.8234 18.4113C22.8632 18.4517 22.9106 18.4836 22.9629 18.5054C23.0153 18.5271 23.0714 18.5382 23.128 18.5379C23.1826 18.5373 23.2364 18.5253 23.2861 18.5027C23.3357 18.48 23.3801 18.4473 23.4163 18.4065L23.6796 18.1144V22.1433H18.4062ZM32.4687 22.1433H24.5234V17.057C24.5266 16.9738 24.5041 16.8915 24.459 16.8214C24.4139 16.7513 24.3484 16.6968 24.2714 16.6651C24.1943 16.6334 24.1093 16.6262 24.028 16.6443C23.9466 16.6625 23.8728 16.7051 23.8165 16.7666L23.1161 17.5081L22.3859 16.7736C22.3464 16.7352 22.2994 16.7052 22.248 16.6855C22.1965 16.6658 22.1416 16.6568 22.0865 16.6589H22.0854C22.0299 16.6569 21.9745 16.6661 21.9226 16.686C21.8708 16.706 21.8235 16.7363 21.7837 16.7751L21.0595 17.5158L20.3353 16.7781C20.2957 16.7389 20.2485 16.7081 20.1967 16.6876C20.1448 16.6671 20.0894 16.6574 20.0337 16.6589H20.0325C19.9772 16.6568 19.922 16.6658 19.8703 16.6855C19.8185 16.7052 19.7713 16.7351 19.7314 16.7736L18.9991 17.5141L18.2952 16.7695C18.2372 16.7078 18.162 16.6649 18.0793 16.6463C17.9967 16.6277 17.9103 16.6343 17.8315 16.6652C17.7526 16.6962 17.6848 16.75 17.6369 16.8199C17.5889 16.8897 17.563 16.9723 17.5625 17.057V22.1433H15.0437C15.3905 21.4402 15.9631 20.2994 16.3976 19.4352C16.6061 19.0157 16.6553 18.5348 16.536 18.0819C16.4167 17.6289 16.137 17.2346 15.749 16.9723L15.7208 16.95C15.3341 16.6872 14.8628 16.5793 14.4002 16.6476C13.9377 16.7159 13.5177 16.9555 13.2235 17.3188L11.5521 19.3828C11.3732 19.606 11.1469 19.7864 10.8895 19.9112C10.6322 20.036 10.3503 20.1019 10.0643 20.1043H9.93257C9.73193 20.1044 9.53189 20.1261 9.3359 20.169V5.97144H11.9375C12.0493 5.97144 12.1567 5.92699 12.2358 5.84788C12.3149 5.76876 12.3593 5.66145 12.3593 5.54956C12.3593 5.43768 12.3149 5.33037 12.2358 5.25125C12.1567 5.17214 12.0493 5.12769 11.9375 5.12769H9.61391L11.7041 0.90894H20.5156V5.12769H14.75C14.6381 5.12769 14.5308 5.17214 14.4516 5.25125C14.3725 5.33037 14.3281 5.43768 14.3281 5.54956C14.3281 5.66145 14.3725 5.76876 14.4516 5.84788C14.5308 5.92699 14.6381 5.97144 14.75 5.97144H17.3515V9.40156C17.3507 9.5149 17.3942 9.62409 17.4728 9.70576C17.5513 9.78744 17.6588 9.83512 17.7721 9.83863H24.3457C24.5787 9.83863 24.7343 9.63472 24.7343 9.40156V5.97144H32.4687V22.1433Z" fill="#222222"/>
</svg>
