<svg width="32" height="22" viewBox="0 0 32 22" fill="none" xmlns="http://www.w3.org/2000/svg">
<mask id="path-1-inside-1_496_14936" fill="white">
<path d="M6.68985 21.6836L4.80818 17.8597L0 9.9225H0.609316L1.16698 9.81986L3.67986 10.0422L5.37918 10.4131L6.02921 10.3153L5.995 11.3293L6.48868 11.3101L7.41685 11.0707L7.82021 10.7385L8.71862 10.4244L9.1562 10.3426L9.62764 10.1373L10.796 8.46916L10.8391 8.26389L10.965 8.06238L11.2705 7.84411L11.5965 7.72129L12.731 7.69597L13.0926 7.7596L13.6544 8.1202L13.9466 7.98335L14.1587 7.41817L14.6466 6.73905L14.8494 6.54507L15.8443 6.07055L16.7633 5.44515L16.7886 5.17693L17.5211 5.08934L17.8368 5.1783L18.6316 4.76433L20.0001 3.42698L20.9981 2.66781L21.7507 2.34895L21.9659 2.02565L23.097 1.84501L23.4131 1.89667L25.3745 1.20626L26.1042 1.04341L26.8945 1.07455L28.5846 1.00612L29.6298 1.49228H29.9035L30.3038 1.0311L30.3304 0.784771L30.8539 0.316406L31.1177 0.369777L31.3418 0.498758L31.9035 1.54565L31.6456 2.33527L31.6914 3.06604L31.8902 3.49608L32 4.37807L31.8324 4.91349L31.3335 5.41436L31.2015 5.70653L30.742 5.78214L30.598 5.89949L30.2052 6.43149L29.2384 7.02028L28.4423 7.94093L27.1764 8.82155L26.7317 8.71652L26.5107 8.7326L25.9383 9.17735L26.198 9.19378L26.3252 9.30052L26.0895 10.0433L25.4682 11.1038L24.6351 12.3108L24.6529 12.511L24.4497 12.8401L24.2763 12.9841L23.24 13.5534L22.1058 13.5415L21.5985 13.654L21.4459 13.887L21.2769 14.6739L21.3391 15.1529L20.9628 15.4762L19.9457 15.8039L19.8492 15.9685L19.7247 17.1659L19.9679 17.6065L20.193 18.3048L20.1739 18.5443L19.9471 19.2812L19.8444 19.9764L19.9471 20.439L19.8444 20.6586L19.7257 20.7698L17.4571 19.6295L11.8661 17.1238L11.7519 17.327L11.4098 17.5347L10.0919 17.936L9.76586 18.1112L9.63551 18.2607L9.58214 18.4625L9.59548 19.143L9.51679 19.3089L8.97248 19.6442L8.6851 19.8947L8.46101 20.5662L8.15584 21.0558L6.95396 21.6651L6.68985 21.6836Z"/>
</mask>
<path d="M6.68985 21.6836L4.80818 17.8597L0 9.9225H0.609316L1.16698 9.81986L3.67986 10.0422L5.37918 10.4131L6.02921 10.3153L5.995 11.3293L6.48868 11.3101L7.41685 11.0707L7.82021 10.7385L8.71862 10.4244L9.1562 10.3426L9.62764 10.1373L10.796 8.46916L10.8391 8.26389L10.965 8.06238L11.2705 7.84411L11.5965 7.72129L12.731 7.69597L13.0926 7.7596L13.6544 8.1202L13.9466 7.98335L14.1587 7.41817L14.6466 6.73905L14.8494 6.54507L15.8443 6.07055L16.7633 5.44515L16.7886 5.17693L17.5211 5.08934L17.8368 5.1783L18.6316 4.76433L20.0001 3.42698L20.9981 2.66781L21.7507 2.34895L21.9659 2.02565L23.097 1.84501L23.4131 1.89667L25.3745 1.20626L26.1042 1.04341L26.8945 1.07455L28.5846 1.00612L29.6298 1.49228H29.9035L30.3038 1.0311L30.3304 0.784771L30.8539 0.316406L31.1177 0.369777L31.3418 0.498758L31.9035 1.54565L31.6456 2.33527L31.6914 3.06604L31.8902 3.49608L32 4.37807L31.8324 4.91349L31.3335 5.41436L31.2015 5.70653L30.742 5.78214L30.598 5.89949L30.2052 6.43149L29.2384 7.02028L28.4423 7.94093L27.1764 8.82155L26.7317 8.71652L26.5107 8.7326L25.9383 9.17735L26.198 9.19378L26.3252 9.30052L26.0895 10.0433L25.4682 11.1038L24.6351 12.3108L24.6529 12.511L24.4497 12.8401L24.2763 12.9841L23.24 13.5534L22.1058 13.5415L21.5985 13.654L21.4459 13.887L21.2769 14.6739L21.3391 15.1529L20.9628 15.4762L19.9457 15.8039L19.8492 15.9685L19.7247 17.1659L19.9679 17.6065L20.193 18.3048L20.1739 18.5443L19.9471 19.2812L19.8444 19.9764L19.9471 20.439L19.8444 20.6586L19.7257 20.7698L17.4571 19.6295L11.8661 17.1238L11.7519 17.327L11.4098 17.5347L10.0919 17.936L9.76586 18.1112L9.63551 18.2607L9.58214 18.4625L9.59548 19.143L9.51679 19.3089L8.97248 19.6442L8.6851 19.8947L8.46101 20.5662L8.15584 21.0558L6.95396 21.6651L6.68985 21.6836Z" fill="white" stroke="#AD0F31" stroke-width="0.743142" stroke-miterlimit="10" mask="url(#path-1-inside-1_496_14936)"/>
</svg>
