<svg width="34" height="32" viewBox="0 0 34 32" fill="none" xmlns="http://www.w3.org/2000/svg">
<path d="M31.4596 24.9617L25.9216 22.563C25.7913 22.4978 25.6468 22.3386 25.5227 22.1261L29.2202 22.1232C29.2848 22.1295 30.8091 22.2689 32.0314 21.7436C32.4944 21.5441 32.8389 21.1503 32.9772 20.6629C33.1166 20.1711 33.0282 19.6503 32.7358 19.2332C31.6789 17.7293 29.2122 13.7995 29.1352 9.81353C29.1335 9.74497 28.9102 2.9665 22.2162 2.91153C21.2307 2.91947 20.3195 3.08663 19.4905 3.3949C19.3097 2.9342 19.0434 2.45367 18.6473 2.00147C17.4839 0.6732 15.5952 0 13.0333 0C10.4714 0 8.58273 0.6732 7.4188 2.00033C6.07693 3.5309 6.2016 5.38673 6.23333 5.69783V8.71193C5.87067 9.12503 5.66667 9.65373 5.66667 10.1994V12.4661C5.66667 13.1557 5.98003 13.7989 6.51497 14.2279C7.03403 16.2832 8.12033 17.8319 8.5 18.3288V20.2039C8.5 20.7525 8.2008 21.2557 7.7197 21.5186L2.66447 24.276C1.02057 25.1736 0 26.8929 0 28.7651V31.1667H24.9333H26.0667H34V29.0717C34 27.3196 33.0265 25.7454 31.4596 24.9617ZM24.9333 30.0333H1.13333V28.7651C1.13333 27.3082 1.9278 25.9692 3.20677 25.2722L8.262 22.5148C9.10803 22.053 9.63333 21.1673 9.63333 20.2045V17.9271L9.5013 17.7695C9.4877 17.7531 8.0988 16.0729 7.56897 13.766L7.5174 13.5416L7.32417 13.417C6.99607 13.205 6.8 12.8497 6.8 12.4667V10.2C6.8 9.8821 6.93487 9.58573 7.17967 9.36417L7.36667 9.19587V5.66667L7.36157 5.59243C7.35987 5.57713 7.1672 4.00633 8.27107 2.7472C9.21003 1.6762 10.8126 1.13333 13.0333 1.13333C15.2462 1.13333 16.8453 1.67223 17.7854 2.73587C18.2529 3.264 18.4881 3.8539 18.6054 4.3605C18.6144 4.40017 18.6229 4.43927 18.6309 4.47837C18.6388 4.5186 18.6473 4.55883 18.6535 4.59737C18.6609 4.64157 18.6671 4.6835 18.6734 4.72543C18.6779 4.75547 18.6824 4.78607 18.6858 4.81497C18.6943 4.88523 18.7011 4.95323 18.7057 5.01613C18.7062 5.02123 18.7062 5.02577 18.7062 5.03087C18.7102 5.09207 18.713 5.14987 18.7147 5.20257C18.7147 5.21277 18.7147 5.22127 18.7153 5.23147C18.7164 5.2785 18.7164 5.32327 18.7159 5.36237C18.7159 5.36803 18.7159 5.3737 18.7159 5.37937C18.7136 5.51253 18.7045 5.59187 18.7045 5.59357L18.7 9.19587L18.887 9.36473C19.1318 9.58573 19.2667 9.8821 19.2667 10.2V12.4667C19.2667 12.9614 18.9425 13.3943 18.4609 13.5428L18.1787 13.6295L18.088 13.91C17.7089 15.0892 17.1689 16.1783 16.4821 17.1473C16.3138 17.3859 16.15 17.5973 16.0078 17.7588L15.8667 17.9197V20.2572C15.8667 20.4006 15.8808 20.5411 15.9029 20.6794C15.9075 20.7088 15.9154 20.7372 15.9211 20.7666C15.9432 20.8805 15.9726 20.9922 16.0089 21.101C16.0174 21.1265 16.0265 21.1508 16.0361 21.1763C16.0803 21.2948 16.1319 21.4092 16.1919 21.5192C16.1987 21.5316 16.205 21.5447 16.2118 21.5571C16.2939 21.7022 16.3886 21.8399 16.4974 21.9668L16.6266 22.1261H16.6487C16.843 22.3176 17.0663 22.4842 17.3202 22.6111L22.7335 25.3175C24.0907 25.9953 24.9333 27.3587 24.9333 28.8756V30.0333ZM32.8667 30.0333H26.0667V28.8756C26.0667 26.9269 24.9838 25.1753 23.2413 24.3038L19.3551 22.3601C19.4508 22.1414 19.4633 21.8909 19.3794 21.6495C19.2406 21.25 18.8779 20.9922 18.4558 20.9922H17.1995C17.1734 20.9463 17.1564 20.8958 17.1354 20.8471C17.1071 20.7819 17.0737 20.7179 17.055 20.6493C17.0204 20.5235 17 20.3921 17 20.2572V18.3413C17.1298 18.1826 17.2663 18.0019 17.4074 17.8024C18.1095 16.8107 18.6722 15.7069 19.0814 14.5163C19.8809 14.1497 20.4 13.3592 20.4 12.4667V10.2C20.4 9.6543 20.196 9.1256 19.8333 8.7125V5.6984C19.8481 5.55673 19.8798 5.09263 19.7857 4.4863C20.5156 4.19957 21.3333 4.05167 22.2167 4.0443C27.7933 4.0902 27.9967 9.60387 28.0024 9.8362C28.0857 14.1332 30.6918 18.2948 31.8087 19.8843C31.9045 20.0203 31.9334 20.1915 31.8875 20.353C31.8614 20.4459 31.7866 20.6148 31.5843 20.7015C30.6323 21.1112 29.3409 20.995 29.2746 20.9922H25.3742C25.0098 20.9922 24.6778 21.1775 24.4857 21.4874C24.2941 21.7963 24.276 22.1737 24.4369 22.4978C24.6143 22.8554 24.9277 23.3331 25.4428 23.5898L30.9661 25.9822C32.1385 26.5744 32.8667 27.7565 32.8667 29.0717V30.0333Z" fill="#222222"/>
</svg>
