<svg width="18" height="18" viewBox="0 0 18 18" fill="none" xmlns="http://www.w3.org/2000/svg">
<path fill-rule="evenodd" clip-rule="evenodd" d="M2.10367 3.26886C2.10533 3.26886 2.06367 3.31219 2.01117 3.36386C1.8095 3.55969 1.392 3.96719 1.38779 4.81969C1.38117 6.01219 2.16533 8.22636 5.94117 12.0014C9.6995 15.758 11.9103 16.5514 13.1053 16.5514H13.1228C13.9753 16.5472 14.382 16.1289 14.5787 15.928C14.6387 15.8664 14.687 15.8214 14.7212 15.793C15.5512 14.958 15.9762 14.3364 15.972 13.938C15.9662 13.5314 15.4603 13.0505 14.7612 12.3855C14.5387 12.1739 14.297 11.9439 14.042 11.6889C13.3812 11.0297 13.0537 11.1422 12.3337 11.3955C11.3378 11.7447 9.97117 12.2197 7.84784 10.0955C5.72117 7.97053 6.197 6.60553 6.54534 5.60969C6.797 4.88969 6.912 4.56136 6.25034 3.89969C5.99117 3.64136 5.75867 3.39636 5.5445 3.17136C4.88367 2.47636 4.407 1.97386 4.00284 1.96803H3.99617C3.597 1.96803 2.977 2.39469 2.0995 3.27219C2.102 3.26969 2.10284 3.26886 2.10367 3.26886ZM13.1062 17.8014C11.0295 17.8014 8.322 16.148 5.05784 12.8855C1.78117 9.60969 0.125335 6.89386 0.137765 4.81303C0.145335 3.43803 0.866168 2.73386 1.137 2.46969C1.15117 2.45219 1.1995 2.40469 1.21617 2.38803C2.41117 1.19219 3.217 0.708859 4.01867 0.717898C4.9495 0.730526 5.612 1.42719 6.45034 2.30969C6.65784 2.52803 6.88284 2.76553 7.13367 3.01553C8.35034 4.23219 8.00367 5.22469 7.72534 6.02136C7.422 6.89052 7.1595 7.64053 8.73117 9.21219C10.3045 10.7839 11.0545 10.5214 11.9203 10.2155C12.7178 9.93719 13.7078 9.58886 14.9262 10.8055C15.1728 11.0522 15.407 11.2747 15.6228 11.4805C16.5095 12.323 17.2095 12.9889 17.2213 13.9222C17.2312 14.718 16.7478 15.5289 15.5545 16.723L15.0262 16.3647L15.4728 16.8014C15.2087 17.0722 14.5053 17.7939 13.1295 17.8014H13.1062Z" fill="#222222"/>
</svg>
