<svg width="32" height="44" viewBox="0 0 32 44" fill="none" xmlns="http://www.w3.org/2000/svg">
<mask id="path-1-inside-1_496_14925" fill="white">
<path d="M28.0339 31.5787L28.0527 31.9138L27.9056 32.3979L27.7787 32.6267L27.6171 32.7522L27.3665 33.4242L27.3087 33.7734L27.7425 34.2654L28.2692 35.094L28.5371 36.2599L28.399 36.2989L25.17 36.3445L24.7066 36.4197L23.9763 36.4291L23.4796 36.1015L22.5852 34.9313L21.3886 34.0728L20.2387 33.6389L20.1353 33.777L19.7015 35.795L19.5778 36.1489L19.2738 36.4858L17.1322 37.1235L16.5603 37.1597L16.1826 37.4261L15.9085 38.678L15.8818 39.1198L14.6834 39.5536L13.9242 39.9436L14.0027 40.8836L13.1188 41.6106L12.6521 42.48L9.52502 43.1564L7.83317 42.959L7.17666 42.5328L7.11557 41.5506L7.3867 40.2065L6.73165 38.0428L6.80829 37.8187L6.81154 37.5241L6.6391 36.3835L6.41533 36.0075L6.22409 35.8947L5.52674 35.1717L5.50794 34.166L5.36876 33.3403L5.10378 32.6791L4.72925 32.1951L4.70901 29.5561L2.84941 26.5404L2.20376 26.531L1.99878 26.4352L1.77464 26.1423L1.7309 25.9638L1.7356 24.8171L2.02047 24.4299L2.46874 24.1197L2.50959 23.9505L2.30895 23.7336L1.85924 23.4202L1.22624 23.1791L0.74073 22.8971L0.474299 22.6104L0.257394 22.2171L0.23679 21.7941L0.393683 21.6155L0.640954 21.4962L0.503221 20.6583L0.144603 19.8091L0 19.6258L0.0596498 19.4143L1.06066 19.1417L1.63546 19.1168L2.06494 17.9697L1.72006 17.2803L0.750492 16.519L0.770738 16.1936L1.67451 15.0498L3.62665 15.7645L6.14745 16.5696L8.36422 17.3609L8.66355 17.3085L9.74156 16.8527L16.5018 13.8963L16.8383 13.6772L17.9272 12.6476L18.5573 12.2843L19.0996 12.1935L19.6494 12.2076L21.3337 12.0681L21.5575 12.0023L21.6938 11.8176L21.6674 11.6484L20.7997 10.6409L20.4332 10.1051L20.209 9.599L19.8316 8.43639L19.6122 8.2578L19.169 8.11319L18.7442 8.0991L17.8513 7.75603L17.027 7.07929L16.8926 6.89853L16.5401 6.10104L16.6449 4.97639L17.151 4.62067L17.4424 4.51727L17.7678 4.31664L17.8368 4.1301L17.2223 3.98549L16.7443 4.0578L16.2682 3.86331L16.116 3.66448L16.0723 3.30586L16.1507 2.58284L16.287 2.45595L16.9544 2.22567L17.0686 1.98599L18.4062 1.91694L19.0486 1.98925L19.3017 1.94876L20.5503 0.988231L21.2317 0.843628L21.6985 0.907977L21.8568 0.995822L22.0795 1.42023L22.5429 1.95309L22.9768 1.85585L23.5299 2.11758L24.3252 2.696L24.836 3.1815L25.4469 3.99779L26.1363 4.75696L27.1641 5.55769L26.9833 5.63759L26.3348 5.42575L24.6617 5.01688L24.5992 5.66254L24.9188 6.42857L25.1129 7.50189L26.4165 7.72277L26.5636 7.85725L26.581 8.02354L26.5228 8.20069L25.901 8.80368L25.97 9.81409L25.6447 10.4724L25.8186 10.9988L26.8308 12.2221L26.9074 12.4777L27.5357 12.9007L28.7649 13.4646L29.537 13.5008L29.7691 13.3457L29.968 13.2925L30.5634 13.3428L31.0116 13.731L31.2871 14.4034L31.2575 14.7668L31.4769 15.5187L32 16.3068L31.5879 16.9083L30.7279 17.7514L29.614 18.3659L29.3194 18.4487L28.8104 18.4722L28.1051 18.5991L27.3767 19.0394L26.9779 20.4175L27.0029 20.8983L27.5625 23.1397L27.4432 23.5955L26.9371 24.6262L26.5344 25.7888L26.4328 27.0219L26.1884 27.763L26.1244 29.307L26.1512 29.581L26.3547 30.0166L27.2856 30.9598L28.0339 31.5787Z"/>
</mask>
<path d="M28.0339 31.5787L28.0527 31.9138L27.9056 32.3979L27.7787 32.6267L27.6171 32.7522L27.3665 33.4242L27.3087 33.7734L27.7425 34.2654L28.2692 35.094L28.5371 36.2599L28.399 36.2989L25.17 36.3445L24.7066 36.4197L23.9763 36.4291L23.4796 36.1015L22.5852 34.9313L21.3886 34.0728L20.2387 33.6389L20.1353 33.777L19.7015 35.795L19.5778 36.1489L19.2738 36.4858L17.1322 37.1235L16.5603 37.1597L16.1826 37.4261L15.9085 38.678L15.8818 39.1198L14.6834 39.5536L13.9242 39.9436L14.0027 40.8836L13.1188 41.6106L12.6521 42.48L9.52502 43.1564L7.83317 42.959L7.17666 42.5328L7.11557 41.5506L7.3867 40.2065L6.73165 38.0428L6.80829 37.8187L6.81154 37.5241L6.6391 36.3835L6.41533 36.0075L6.22409 35.8947L5.52674 35.1717L5.50794 34.166L5.36876 33.3403L5.10378 32.6791L4.72925 32.1951L4.70901 29.5561L2.84941 26.5404L2.20376 26.531L1.99878 26.4352L1.77464 26.1423L1.7309 25.9638L1.7356 24.8171L2.02047 24.4299L2.46874 24.1197L2.50959 23.9505L2.30895 23.7336L1.85924 23.4202L1.22624 23.1791L0.74073 22.8971L0.474299 22.6104L0.257394 22.2171L0.23679 21.7941L0.393683 21.6155L0.640954 21.4962L0.503221 20.6583L0.144603 19.8091L0 19.6258L0.0596498 19.4143L1.06066 19.1417L1.63546 19.1168L2.06494 17.9697L1.72006 17.2803L0.750492 16.519L0.770738 16.1936L1.67451 15.0498L3.62665 15.7645L6.14745 16.5696L8.36422 17.3609L8.66355 17.3085L9.74156 16.8527L16.5018 13.8963L16.8383 13.6772L17.9272 12.6476L18.5573 12.2843L19.0996 12.1935L19.6494 12.2076L21.3337 12.0681L21.5575 12.0023L21.6938 11.8176L21.6674 11.6484L20.7997 10.6409L20.4332 10.1051L20.209 9.599L19.8316 8.43639L19.6122 8.2578L19.169 8.11319L18.7442 8.0991L17.8513 7.75603L17.027 7.07929L16.8926 6.89853L16.5401 6.10104L16.6449 4.97639L17.151 4.62067L17.4424 4.51727L17.7678 4.31664L17.8368 4.1301L17.2223 3.98549L16.7443 4.0578L16.2682 3.86331L16.116 3.66448L16.0723 3.30586L16.1507 2.58284L16.287 2.45595L16.9544 2.22567L17.0686 1.98599L18.4062 1.91694L19.0486 1.98925L19.3017 1.94876L20.5503 0.988231L21.2317 0.843628L21.6985 0.907977L21.8568 0.995822L22.0795 1.42023L22.5429 1.95309L22.9768 1.85585L23.5299 2.11758L24.3252 2.696L24.836 3.1815L25.4469 3.99779L26.1363 4.75696L27.1641 5.55769L26.9833 5.63759L26.3348 5.42575L24.6617 5.01688L24.5992 5.66254L24.9188 6.42857L25.1129 7.50189L26.4165 7.72277L26.5636 7.85725L26.581 8.02354L26.5228 8.20069L25.901 8.80368L25.97 9.81409L25.6447 10.4724L25.8186 10.9988L26.8308 12.2221L26.9074 12.4777L27.5357 12.9007L28.7649 13.4646L29.537 13.5008L29.7691 13.3457L29.968 13.2925L30.5634 13.3428L31.0116 13.731L31.2871 14.4034L31.2575 14.7668L31.4769 15.5187L32 16.3068L31.5879 16.9083L30.7279 17.7514L29.614 18.3659L29.3194 18.4487L28.8104 18.4722L28.1051 18.5991L27.3767 19.0394L26.9779 20.4175L27.0029 20.8983L27.5625 23.1397L27.4432 23.5955L26.9371 24.6262L26.5344 25.7888L26.4328 27.0219L26.1884 27.763L26.1244 29.307L26.1512 29.581L26.3547 30.0166L27.2856 30.9598L28.0339 31.5787Z" fill="white" stroke="#AD0F31" stroke-width="0.743142" stroke-miterlimit="10" mask="url(#path-1-inside-1_496_14925)"/>
</svg>
