<svg width="17" height="17" viewBox="0 0 17 17" fill="none" xmlns="http://www.w3.org/2000/svg">
<path fill-rule="evenodd" clip-rule="evenodd" d="M12.0908 0.126709C14.9149 0.126709 16.8124 2.10838 16.8124 5.05671V11.8634C16.8124 14.8117 14.9149 16.7934 12.0891 16.7934H4.86575C2.04242 16.7934 0.145752 14.8117 0.145752 11.8634V5.05671C0.145752 2.10838 2.04242 0.126709 4.86575 0.126709H12.0908ZM12.0908 1.37671H4.86575C2.75825 1.37671 1.39575 2.82088 1.39575 5.05671V11.8634C1.39575 14.0992 2.75825 15.5434 4.86575 15.5434H12.0891C14.1991 15.5434 15.5624 14.0992 15.5624 11.8634V5.05671C15.5624 2.82088 14.1991 1.37671 12.0908 1.37671ZM5.84309 6.29204C6.8225 6.29272 7.65029 6.94338 7.91931 7.83414L12.6538 7.83463C12.9988 7.83463 13.2788 8.11463 13.2788 8.45963V10.0038C13.2788 10.3488 12.9988 10.6288 12.6538 10.6288C12.3088 10.6288 12.0288 10.3488 12.0288 10.0038V9.08463L10.9216 9.08421L10.922 10.0038C10.922 10.3488 10.642 10.6288 10.297 10.6288C9.952 10.6288 9.672 10.3488 9.672 10.0038L9.67159 9.08421L7.91968 9.08501C7.65082 9.97681 6.82174 10.6287 5.84309 10.6287C4.64725 10.6287 3.67475 9.65538 3.67475 8.46038C3.67475 7.26454 4.64725 6.29204 5.84309 6.29204ZM5.84475 7.54204C5.33642 7.54204 4.92475 7.95371 4.92475 8.46038C4.92475 8.96704 5.33642 9.37871 5.84309 9.37871C6.34892 9.37871 6.76142 8.96704 6.76142 8.46038C6.76142 7.95454 6.34975 7.54288 5.84475 7.54204Z" fill="#222222"/>
</svg>
