<svg width="16" height="21" viewBox="0 0 16 21" fill="none" xmlns="http://www.w3.org/2000/svg">
<path fill-rule="evenodd" clip-rule="evenodd" d="M15.8913 17.0216C15.8913 20.4424 11.3878 20.8378 8.0011 20.8378L7.75875 20.8376C5.60106 20.8322 0.108887 20.6903 0.108887 17.0008C0.108887 13.6498 4.43148 13.2019 7.79235 13.185L8.24345 13.1847C10.401 13.1902 15.8913 13.3321 15.8913 17.0216ZM8.0011 14.7413C3.75559 14.7413 1.60344 15.5011 1.60344 17.0008C1.60344 18.514 3.75559 19.281 8.0011 19.281C12.2456 19.281 14.3968 18.5213 14.3968 17.0216C14.3968 15.5083 12.2456 14.7413 8.0011 14.7413ZM8.0011 0.214722C10.9185 0.214722 13.2908 2.68696 13.2908 5.72587C13.2908 8.76479 10.9185 11.236 8.0011 11.236H7.96922C5.05784 11.2266 2.69944 8.75337 2.70937 5.72276C2.70937 2.68696 5.08275 0.214722 8.0011 0.214722ZM8.0011 1.69682C5.86788 1.69682 4.13219 3.50377 4.13219 5.72587C4.12524 7.94071 5.84796 9.74663 7.97221 9.75493L8.0011 10.496V9.75493C10.1333 9.75493 11.868 7.94694 11.868 5.72587C11.868 3.50377 10.1333 1.69682 8.0011 1.69682Z" fill="#222222"/>
</svg>
