<svg width="36" height="36" viewBox="0 0 36 36" fill="none" xmlns="http://www.w3.org/2000/svg">
<mask id="path-1-inside-1_439_13777" fill="white">
<path d="M28.1766 30.0968L23.7886 29.8246L20.6613 30.6718L15.0693 31.6443L14.2236 33.924L12.8084 35.9805L7.40491 36L6.76858 35.6355L6.32939 35.9304L5.5802 35.8664L5.49771 35.7983L5.41908 34.418L5.42406 34.0111L5.37874 33.6375L5.22736 33.2247L5.21966 32.1395L5.03202 29.6012L5.16799 28.5051L4.45211 28.4954L4.37641 28.5838L4.34899 28.9613L4.28418 29.0881L4.18696 29.1754L4.08181 29.1981L3.85973 29.1557L3.6517 28.6968L2.49165 27.3852L2.32282 26.9597L2.31013 26.6156L2.18526 26.536L2.43771 26.1741L2.38083 25.6737L1.99558 25.3711L1.84828 25.3169L1.77463 25.2412L1.50541 24.381L0.738545 23.1316L0.380036 22.7344L0.366213 22.5595L0.405644 22.4461L0.697299 22.2063L1.02635 21.8622L1.82177 20.7054L1.89338 20.56L1.89746 20.3073L2.19206 20.0852L2.79713 20.0822L2.81979 19.7145L2.76857 19.6102L2.20679 18.927L1.96137 18.7305L0.435105 17.7324L0.0777306 17.0177L0.0188109 16.828L0 16.3925L0.187639 15.9178L0.424455 15.5185L0.721999 14.6731L0.619798 13.5829L0.525525 13.0521L0.420374 12.7573L0.387967 12.3263L0.501275 11.986L0.897176 12.0767L1.39981 12.1092L6.84767 12.3324L6.98794 12.2489L6.6453 11.5657L6.43114 11.2393L5.74472 10.8695L5.48842 10.6159L4.5466 9.16893L4.21756 8.43762L4.10652 8.03929L4.20872 6.90511L4.10176 6.43511L4.03989 6.29447L5.93123 5.76753L15.8063 0.0719052L15.8858 0.167175L16.1648 0.291032L16.3053 0.305774L18.5533 0L18.7251 0.241805L18.9549 0.455261L19.7779 0.944769L20.0127 0.959517L20.3526 1.24465L21.3377 1.57401L21.7944 2.50676L21.7148 2.72203L21.5902 2.91189L21.3967 3.08792L21.3121 3.42409L21.4674 4.05016L21.5823 4.21938L22.3074 5.73918L22.4176 8.13683L20.8698 8.15657L22.5737 10.103L22.9057 14.1217L31.4303 14.4637L31.55 14.4136L31.6796 14.2228L31.9833 14.2042L31.9989 14.8049L31.8899 15.3693L31.5273 15.7161L31.2866 16.079L31.2474 16.2362L31.3093 17.3992L31.5017 17.9616L31.5862 18.4885L31.5765 18.8934L31.6708 19.2493L31.7659 19.3496L32.146 19.4566L32.366 19.5927L33.0073 20.04L33.0654 20.1746L33.1508 20.2601L33.522 20.4774L33.6861 20.4942L34.0917 20.2936L34.8645 20.9757L34.7643 21.0731L34.6963 21.2019L34.7965 21.4564L35.0047 21.6669L34.9968 22.2744L35.976 24.1344L35.8208 24.3565L35.7669 24.5019L34.7414 27.7845L34.9762 27.8237L35.0668 28.501L34.7104 28.5217L33.0049 32.1495L34.3385 33.3762L34.096 33.6575L33.0617 34.2876L32.8183 34.3867L32.9253 34.1145L32.9459 33.9356L32.9548 33.4313L32.8576 32.6183L32.2772 32.2683L28.1766 30.0968Z"/>
</mask>
<path d="M28.1766 30.0968L23.7886 29.8246L20.6613 30.6718L15.0693 31.6443L14.2236 33.924L12.8084 35.9805L7.40491 36L6.76858 35.6355L6.32939 35.9304L5.5802 35.8664L5.49771 35.7983L5.41908 34.418L5.42406 34.0111L5.37874 33.6375L5.22736 33.2247L5.21966 32.1395L5.03202 29.6012L5.16799 28.5051L4.45211 28.4954L4.37641 28.5838L4.34899 28.9613L4.28418 29.0881L4.18696 29.1754L4.08181 29.1981L3.85973 29.1557L3.6517 28.6968L2.49165 27.3852L2.32282 26.9597L2.31013 26.6156L2.18526 26.536L2.43771 26.1741L2.38083 25.6737L1.99558 25.3711L1.84828 25.3169L1.77463 25.2412L1.50541 24.381L0.738545 23.1316L0.380036 22.7344L0.366213 22.5595L0.405644 22.4461L0.697299 22.2063L1.02635 21.8622L1.82177 20.7054L1.89338 20.56L1.89746 20.3073L2.19206 20.0852L2.79713 20.0822L2.81979 19.7145L2.76857 19.6102L2.20679 18.927L1.96137 18.7305L0.435105 17.7324L0.0777306 17.0177L0.0188109 16.828L0 16.3925L0.187639 15.9178L0.424455 15.5185L0.721999 14.6731L0.619798 13.5829L0.525525 13.0521L0.420374 12.7573L0.387967 12.3263L0.501275 11.986L0.897176 12.0767L1.39981 12.1092L6.84767 12.3324L6.98794 12.2489L6.6453 11.5657L6.43114 11.2393L5.74472 10.8695L5.48842 10.6159L4.5466 9.16893L4.21756 8.43762L4.10652 8.03929L4.20872 6.90511L4.10176 6.43511L4.03989 6.29447L5.93123 5.76753L15.8063 0.0719052L15.8858 0.167175L16.1648 0.291032L16.3053 0.305774L18.5533 0L18.7251 0.241805L18.9549 0.455261L19.7779 0.944769L20.0127 0.959517L20.3526 1.24465L21.3377 1.57401L21.7944 2.50676L21.7148 2.72203L21.5902 2.91189L21.3967 3.08792L21.3121 3.42409L21.4674 4.05016L21.5823 4.21938L22.3074 5.73918L22.4176 8.13683L20.8698 8.15657L22.5737 10.103L22.9057 14.1217L31.4303 14.4637L31.55 14.4136L31.6796 14.2228L31.9833 14.2042L31.9989 14.8049L31.8899 15.3693L31.5273 15.7161L31.2866 16.079L31.2474 16.2362L31.3093 17.3992L31.5017 17.9616L31.5862 18.4885L31.5765 18.8934L31.6708 19.2493L31.7659 19.3496L32.146 19.4566L32.366 19.5927L33.0073 20.04L33.0654 20.1746L33.1508 20.2601L33.522 20.4774L33.6861 20.4942L34.0917 20.2936L34.8645 20.9757L34.7643 21.0731L34.6963 21.2019L34.7965 21.4564L35.0047 21.6669L34.9968 22.2744L35.976 24.1344L35.8208 24.3565L35.7669 24.5019L34.7414 27.7845L34.9762 27.8237L35.0668 28.501L34.7104 28.5217L33.0049 32.1495L34.3385 33.3762L34.096 33.6575L33.0617 34.2876L32.8183 34.3867L32.9253 34.1145L32.9459 33.9356L32.9548 33.4313L32.8576 32.6183L32.2772 32.2683L28.1766 30.0968Z" fill="white" stroke="#AD0F31" stroke-width="0.743142" stroke-miterlimit="10" mask="url(#path-1-inside-1_439_13777)"/>
</svg>
