<svg width="17" height="18" viewBox="0 0 17 18" fill="none" xmlns="http://www.w3.org/2000/svg">
<path fill-rule="evenodd" clip-rule="evenodd" d="M8.39081 0.666687C12.6868 0.666687 16.1812 4.30669 16.1812 8.78169C16.1812 10.893 15.4034 12.8186 14.1305 14.2638L16.6351 16.8673C16.8695 17.1114 16.8703 17.5064 16.6359 17.7506C16.5191 17.8739 16.3647 17.9348 16.2111 17.9348C16.0583 17.9348 15.9047 17.8739 15.7871 17.7523L13.2523 15.1192C11.9189 16.2316 10.2282 16.8975 8.39081 16.8975C4.09481 16.8975 0.599609 13.2567 0.599609 8.78169C0.599609 4.30669 4.09481 0.666687 8.39081 0.666687ZM8.39081 1.91669C4.75641 1.91669 1.79961 4.99585 1.79961 8.78169C1.79961 12.5675 4.75641 15.6475 8.39081 15.6475C12.0244 15.6475 14.9812 12.5675 14.9812 8.78169C14.9812 4.99585 12.0244 1.91669 8.39081 1.91669Z" fill="#222222"/>
</svg>
