<svg width="20" height="21" viewBox="0 0 20 21" fill="none" xmlns="http://www.w3.org/2000/svg">
<path fill-rule="evenodd" clip-rule="evenodd" d="M5.34752 17.7078C6.03296 17.7078 6.59072 18.2878 6.59072 19.0018C6.59072 19.7158 6.03296 20.2968 5.34752 20.2968C4.66207 20.2968 4.10527 19.7158 4.10527 19.0018C4.10527 18.2878 4.66207 17.7078 5.34752 17.7078ZM16.1766 17.7078C16.863 17.7078 17.4208 18.2878 17.4208 19.0018C17.4208 19.7158 16.863 20.2968 16.1766 20.2968C15.4912 20.2968 14.9344 19.7158 14.9344 19.0018C14.9344 18.2878 15.4912 17.7078 16.1766 17.7078ZM1.24273 0.765346L3.23954 1.12535C3.56114 1.18435 3.80594 1.46235 3.83378 1.80235L4.05938 4.60336L4.89828 4.60374C5.03518 4.6038 5.17062 4.60386 5.30462 4.60393L6.84476 4.60469C6.96753 4.60475 7.08892 4.60482 7.20896 4.60488L8.9095 4.60585C9.01633 4.60592 9.12189 4.60599 9.22617 4.60605L10.4179 4.60684C10.5123 4.60691 10.6055 4.60698 10.6975 4.60704L11.7456 4.60785C11.8284 4.60791 11.91 4.60798 11.9905 4.60805L12.9044 4.60887C12.9763 4.60894 13.0471 4.609 13.1169 4.60907L13.7176 4.6097C13.7813 4.60976 13.844 4.60983 13.9058 4.6099L14.6014 4.61075C14.6556 4.61082 14.709 4.61089 14.7614 4.61096L15.3487 4.61181C15.3942 4.61188 15.4389 4.61195 15.4828 4.61203L15.8561 4.61268C15.8952 4.61275 15.9335 4.61282 15.9711 4.61289L16.3869 4.61377C16.4187 4.61384 16.4498 4.61392 16.4802 4.61399L16.7361 4.61466C16.7626 4.61473 16.7885 4.61481 16.8137 4.61488L17.088 4.61578C17.1086 4.61586 17.1286 4.61594 17.1481 4.61601L17.3091 4.6167C17.3255 4.61677 17.3414 4.61685 17.3568 4.61693L17.5197 4.61785C17.5316 4.61793 17.543 4.618 17.554 4.61808L17.6428 4.61878C17.6516 4.61886 17.66 4.61894 17.6681 4.61902L17.732 4.61973C17.7382 4.61981 17.7441 4.61989 17.7497 4.61997L17.7932 4.62069C17.7973 4.62077 17.8011 4.62085 17.8048 4.62093L17.8323 4.62165C17.8348 4.62173 17.8372 4.62181 17.8394 4.62189L17.8593 4.62287C17.8605 4.62296 17.8616 4.62304 17.8627 4.62312C17.872 4.62403 17.8734 4.6242 17.8748 4.62436C18.4095 4.70536 18.8799 4.99636 19.2006 5.44437C19.5212 5.89137 19.6556 6.44237 19.5788 6.99437L18.6678 13.5524C18.4959 14.8004 17.4553 15.7414 16.2457 15.7414H5.76147C4.49715 15.7414 3.42674 14.7134 3.32402 13.3984L2.44466 2.50435L0.997932 2.24435C0.60529 2.17235 0.343209 1.78535 0.41041 1.37635C0.47953 0.967347 0.858731 0.701346 1.24273 0.765346ZM4.70569 6.10371L4.18034 6.10337L4.75923 13.2754C4.80147 13.8274 5.23443 14.2414 5.76339 14.2414H16.2438C16.7439 14.2414 17.1711 13.8534 17.2422 13.3384L18.1542 6.77937C18.1753 6.62337 18.1378 6.46737 18.0466 6.34137C17.9564 6.21437 17.8239 6.13237 17.6742 6.11037C17.6672 6.11064 17.6507 6.1109 17.6249 6.11113L17.5205 6.11175C17.4986 6.11184 17.4746 6.11193 17.4485 6.11201L16.9046 6.11287C16.8587 6.11291 16.811 6.11293 16.7615 6.11296L15.4828 6.11291C15.4115 6.11288 15.3388 6.11285 15.2648 6.11281L13.8055 6.11189C13.7181 6.11182 13.6297 6.11175 13.5404 6.11168L12.7147 6.11099C12.6206 6.11091 12.5258 6.11083 12.4304 6.11074L11.5558 6.10994C11.457 6.10985 11.3578 6.10976 11.2581 6.10966L10.6556 6.10908C10.5545 6.10899 10.4532 6.10889 10.3515 6.10879L9.43214 6.10789C9.32963 6.1078 9.22705 6.1077 9.12447 6.1076L8.50945 6.107C8.4071 6.1069 8.30486 6.1068 8.2028 6.10671L7.593 6.10613C7.49187 6.10603 7.39104 6.10594 7.29055 6.10585L6.39726 6.10505C6.29941 6.10496 6.20209 6.10488 6.10536 6.1048L4.97647 6.1039C4.88537 6.10384 4.79509 6.10377 4.70569 6.10371ZM14.7019 8.29968C15.0993 8.29968 15.4219 8.63568 15.4219 9.04968C15.4219 9.46368 15.0993 9.79968 14.7019 9.79968H12.0408C11.6424 9.79968 11.3208 9.46368 11.3208 9.04968C11.3208 8.63568 11.6424 8.29968 12.0408 8.29968H14.7019Z" fill="#222222"/>
</svg>
