<svg width="32" height="24" viewBox="0 0 32 24" fill="none" xmlns="http://www.w3.org/2000/svg">
<path d="M1.77903 14.1644L1.44847 12.7243L1.44133 12.6932L1.42422 12.6663L0.729231 11.5719L0.72143 11.5596L0.711812 11.5487L0.197686 10.9651L0.256689 10.6085L0.562563 9.78718L0.734098 9.65388L0.764164 9.63052L0.782615 9.59721L0.950043 9.29497L0.959579 9.27776L0.965297 9.25893L1.15944 8.6196L1.16901 8.58809L1.16716 8.55522L1.14318 8.12726L1.77702 1.9135L1.86376 1.73646L2.55571 1.8187L4.22465 2.67082L4.64521 3.10769L4.66839 3.13176L4.69849 3.14625L5.09536 3.33724L5.15234 3.36466L5.21421 3.35163L5.75608 3.23751L5.85041 3.21764L5.88848 3.12907L6.11792 2.59529L6.12769 2.57254L6.13117 2.54803L6.2019 2.04982L6.49827 1.58053L7.01489 1.6735L7.7454 2.4963L7.75228 2.50404L7.75998 2.51098L8.5661 3.2372L8.59049 3.25917L8.62093 3.27145L9.98516 3.82196L10.012 3.8328L10.0409 3.83494L11.4094 3.93666L11.472 3.94132L11.5247 3.90702L11.7312 3.77236L11.7682 3.74823L11.7904 3.71004L11.9335 3.46369L11.9504 3.43459L11.956 3.40141L12.1196 2.43598L12.1225 2.41896L12.1222 2.40171L12.1023 1.2562L12.1385 1.16233L13.0097 1.39591L13.2543 1.73885L13.2726 1.76443L13.2982 1.78259L13.9846 2.26865L14.0323 2.30242L14.0907 2.30282L23.9594 2.36918L23.9615 2.36917L31.798 2.33464L31.8132 2.75303L27.8699 15.7205L26.8633 14.9033L26.6187 14.5267L26.5356 13.4727L26.5313 13.4175L26.4974 13.3737L26.3262 13.1521L26.2701 13.0797L26.1785 13.08L14.4615 13.1196L14.3487 13.12L14.297 13.2202L13.7552 14.2706L13.7508 14.279L13.7474 14.2878L12.3629 17.807L11.9078 18.4469L11.3978 18.9109L11.373 18.9335L11.3577 18.9633L11.0414 19.5778L11.0342 19.5918L11.0295 19.6068L10.7528 20.482L10.7452 20.5062L10.7443 20.5317L10.7033 21.7409L10.5292 22.5791L10.4251 22.7891L10.4028 22.7241L10.3566 21.8956L10.3552 21.8717L10.3479 21.849L10.2387 21.5095L10.2265 21.4718L10.2 21.4423L9.30193 20.4426L9.28604 20.2216L9.39599 19.8546L9.41077 19.8052L9.39804 19.7553L9.2101 19.0186L9.20402 18.9948L9.19195 18.9734L8.54184 17.8192L8.32947 16.1915L8.322 16.1342L8.28334 16.0912L7.80634 15.5612L7.78 15.532L7.74405 15.5159L6.79529 15.0919L6.73911 15.0668L6.67904 15.0802L6.39385 15.1438L3.83685 14.3377L3.67162 14.1796L3.61613 14.1265L3.53932 14.128L1.77903 14.1644Z" fill="white" stroke="#AD0F31" stroke-width="0.371571" stroke-miterlimit="10"/>
</svg>
