<svg width="17" height="18" viewBox="0 0 17 18" fill="none" xmlns="http://www.w3.org/2000/svg">
<path fill-rule="evenodd" clip-rule="evenodd" d="M12.1047 0.712402C14.9288 0.712402 16.8263 2.69407 16.8263 5.6424V12.4491C16.8263 15.3974 14.9288 17.3791 12.103 17.3791H4.87967C2.05633 17.3791 0.159668 15.3974 0.159668 12.4491V5.6424C0.159668 2.69407 2.05633 0.712402 4.87967 0.712402H12.1047ZM12.1047 1.9624H4.87967C2.77217 1.9624 1.40967 3.40657 1.40967 5.6424V12.4491C1.40967 14.6849 2.77217 16.1291 4.87967 16.1291H12.103C14.213 16.1291 15.5763 14.6849 15.5763 12.4491V5.6424C15.5763 3.40657 14.213 1.9624 12.1047 1.9624ZM8.488 8.42074C8.833 8.42074 9.113 8.70074 9.113 9.04574V12.3791C9.113 12.7241 8.833 13.0041 8.488 13.0041C8.143 13.0041 7.863 12.7241 7.863 12.3791V9.04574C7.863 8.70074 8.143 8.42074 8.488 8.42074ZM8.49208 5.04915C8.95292 5.04915 9.32542 5.42165 9.32542 5.88249C9.32542 6.34332 8.95292 6.71582 8.49208 6.71582C8.03125 6.71582 7.65459 6.34332 7.65459 5.88249C7.65459 5.42165 8.02375 5.04915 8.48375 5.04915H8.49208Z" fill="#222222"/>
</svg>
