<svg width="10" height="10" viewBox="0 0 10 10" fill="none" xmlns="http://www.w3.org/2000/svg">
<path fill-rule="evenodd" clip-rule="evenodd" d="M8.9423 3.36003C9.1488 3.37703 9.3028 3.55753 9.2863 3.76403C9.2833 3.79803 9.0123 7.15353 8.8563 8.56103C8.7593 9.43453 8.1823 9.96603 7.3113 9.98203C6.6448 9.99353 6.0018 10 5.3733 10C4.6958 10 4.0353 9.99253 3.3818 9.97903C2.5458 9.96253 1.9673 9.42053 1.8728 8.56453C1.7153 7.14453 1.4458 3.79753 1.4433 3.76403C1.4263 3.55753 1.5803 3.37653 1.7868 3.36003C1.9903 3.35453 2.1743 3.49753 2.1908 3.70353C2.1924 3.72524 2.30257 5.09205 2.42263 6.44439L2.44675 6.71426C2.50722 7.38645 2.56851 8.03235 2.6183 8.48203C2.6718 8.96853 2.9343 9.21953 3.3973 9.22903C4.6473 9.25553 5.9228 9.25703 7.2978 9.23203C7.7898 9.22253 8.0558 8.97653 8.1108 8.47853C8.2658 7.08153 8.5358 3.73753 8.5388 3.70353C8.5553 3.49753 8.7378 3.35353 8.9423 3.36003ZM6.4227 0.000183105C6.8817 0.000183105 7.2852 0.309683 7.4037 0.753183L7.5307 1.38368C7.57174 1.59037 7.75312 1.74131 7.96314 1.74463L9.604 1.74468C9.811 1.74468 9.979 1.91268 9.979 2.11968C9.979 2.32668 9.811 2.49468 9.604 2.49468L7.97779 2.49461C7.97527 2.49466 7.97274 2.49468 7.9702 2.49468L7.958 2.49418L2.77081 2.49462C2.76678 2.49466 2.76274 2.49468 2.7587 2.49468L2.751 2.49418L1.125 2.49468C0.918 2.49468 0.75 2.32668 0.75 2.11968C0.75 1.91268 0.918 1.74468 1.125 1.74468L2.7655 1.74418L2.81601 1.74099C3.00415 1.71658 3.16052 1.57368 3.1987 1.38368L3.3202 0.775683C3.4437 0.309683 3.8472 0.000183105 4.3062 0.000183105H6.4227ZM6.4227 0.750183H4.3062C4.1862 0.750183 4.0807 0.830683 4.0502 0.946183L3.9337 1.53118C3.91889 1.60528 3.89733 1.67669 3.86974 1.74482H6.85931C6.83168 1.67669 6.81007 1.60528 6.7952 1.53118L6.6737 0.923183C6.6482 0.830683 6.5427 0.750183 6.4227 0.750183Z" fill="#2B2B2B"/>
</svg>
